<svg id="Layer_1" data-name="Layer 1" xmlns="http://www.w3.org/2000/svg" viewBox="0 0 19.06 18.12"><path d="M14.28,0S12.94,3.44,12.4,5.42A6.61,6.61,0,0,0,9.53,5h0a6.54,6.54,0,0,0-2.86.45C6.12,3.44,4.77,0,4.77,0a52.36,52.36,0,0,0,.09,7.55A36.8,36.8,0,0,1,5,11.8a13.36,13.36,0,0,0,.9,3.77c.45.9,1,2,1.79,2.16a10.47,10.47,0,0,0,1.79.36h0a10.11,10.11,0,0,0,1.79-.36c.81-.18,1.35-1.26,1.8-2.16A13.36,13.36,0,0,0,14,11.8a39,39,0,0,1,.17-4.22A52.36,52.36,0,0,0,14.28,0Zm-2,15.72c-.63,1.08-.81,1.17-1.26,1.35a5,5,0,0,1-1.44.27,5,5,0,0,1-1.44-.27c-.44-.18-.62-.27-1.25-1.35a14.51,14.51,0,0,1-1.08-5.12,20,20,0,0,1,3.77,1.8,20,20,0,0,1,3.77-1.8A14.53,14.53,0,0,1,12.23,15.75Z"/><path d="M8.81,10.63c.14-.14,0-.27-.27-.45A12.31,12.31,0,0,0,5.94,9.1c-.18.09,0,.27.09.36s1.17,1.26,1.53,1.26A4.74,4.74,0,0,0,8.81,10.63Z" style="fill:#fff"/><path d="M10.23,10.63c-.14-.14,0-.27.27-.45A12.31,12.31,0,0,1,13.1,9.1c.18.09,0,.27-.09.36s-1.16,1.26-1.52,1.26A4.78,4.78,0,0,1,10.23,10.63Z" style="fill:#fff"/></svg>