<svg id="Layer_1" data-name="Layer 1" xmlns="http://www.w3.org/2000/svg" viewBox="0 0 512 512"><path d="M184.91,127.81H407a57.8,57.8,0,0,1,11.13,1.1c1.83.36,3.64.82,5.43,1.36s3.54,1.17,5.27,1.88,3.41,1.52,5.06,2.4,3.25,1.84,4.8,2.87,3,2.15,4.49,3.34a54.76,54.76,0,0,1,4.15,3.76q2,2,3.76,4.14c1.18,1.45,2.3,3,3.33,4.5a57.33,57.33,0,0,1,7.16,15.13c.54,1.79,1,3.6,1.36,5.43s.64,3.68.82,5.53.28,3.73.28,5.59V407c0,1.87-.1,3.73-.28,5.59s-.46,3.7-.82,5.53a55.25,55.25,0,0,1-1.36,5.43,57.77,57.77,0,0,1-4.28,10.33,55.4,55.4,0,0,1-2.88,4.8c-1,1.56-2.15,3.05-3.33,4.5s-2.44,2.83-3.76,4.15a54.63,54.63,0,0,1-4.15,3.75q-2.16,1.79-4.49,3.34a55.4,55.4,0,0,1-4.8,2.88c-1.65.88-3.34,1.67-5.06,2.39s-3.48,1.34-5.27,1.88a53.87,53.87,0,0,1-5.43,1.36c-1.83.37-3.68.64-5.54.83s-3.72.27-5.59.27H184.91c-1.87,0-3.73-.09-5.59-.27s-3.7-.46-5.54-.83a53.87,53.87,0,0,1-5.43-1.36q-2.67-.81-5.27-1.88c-1.72-.72-3.41-1.51-5.05-2.39s-3.25-1.84-4.81-2.88-3.05-2.15-4.49-3.34-2.83-2.43-4.15-3.75-2.57-2.71-3.76-4.15-2.29-2.94-3.33-4.5a55.4,55.4,0,0,1-2.88-4.8,54.36,54.36,0,0,1-2.39-5.06c-.72-1.72-1.34-3.48-1.89-5.27s-1-3.59-1.36-5.43-.63-3.67-.82-5.53-.27-3.72-.27-5.59V184.84c0-1.86.09-3.73.27-5.59s.46-3.7.82-5.53.82-3.64,1.36-5.43,1.17-3.54,1.89-5.27a56.47,56.47,0,0,1,5.27-9.86q1.56-2.32,3.33-4.5t3.76-4.14c1.32-1.32,2.71-2.58,4.15-3.76s2.94-2.3,4.49-3.34,3.16-2,4.81-2.87,3.33-1.68,5.05-2.4,3.49-1.34,5.27-1.88,3.6-1,5.43-1.36a57.8,57.8,0,0,1,11.13-1.1Z" style="fill:none;stroke:#ef4950;stroke-linejoin:round;stroke-width:32px"/><path d="M383.52,127.81l.5-24c0-1.83-.1-3.66-.28-5.49s-.46-3.63-.82-5.43a54.71,54.71,0,0,0-1.35-5.33,54,54,0,0,0-1.86-5.17c-.7-1.69-1.49-3.35-2.35-5s-1.81-3.19-2.83-4.71a56.51,56.51,0,0,0-15.45-15.45q-2.28-1.53-4.71-2.83c-1.62-.86-3.27-1.65-5-2.35a54,54,0,0,0-5.17-1.86,54.71,54.71,0,0,0-5.33-1.35q-2.7-.54-5.43-.82c-1.83-.18-3.66-.28-5.49-.28H111.87c-1.05,0-2.09,0-3.14.08s-2.09.14-3.13.24-2.08.24-3.12.4-2.06.33-3.09.54-2,.44-3.06.69-2,.54-3,.85-2,.63-3,1-2,.73-2.93,1.13-1.92.83-2.87,1.28-1.88.92-2.8,1.42-1.83,1-2.73,1.55-1.78,1.1-2.65,1.68-1.73,1.18-2.57,1.81-1.66,1.27-2.47,1.93-1.61,1.35-2.38,2-1.53,1.43-2.28,2.17-1.46,1.5-2.16,2.27-1.39,1.57-2.05,2.38-1.31,1.64-1.94,2.48-1.22,1.69-1.81,2.56S57.54,78,57,78.92s-1,1.81-1.55,2.74-1,1.85-1.41,2.8-.88,1.9-1.28,2.87-.78,1.94-1.14,2.93-.68,2-1,3-.58,2-.84,3-.49,2-.69,3.06-.39,2.06-.55,3.1-.29,2.07-.39,3.11-.19,2.09-.24,3.13-.08,2.1-.09,3.14V327.92c0,1.84.1,3.67.29,5.49a54.68,54.68,0,0,0,.82,5.43q.54,2.7,1.34,5.33t1.86,5.17c.71,1.69,1.49,3.35,2.36,5s1.81,3.18,2.83,4.71,2.11,3,3.27,4.41,2.39,2.77,3.69,4.07,2.65,2.52,4.07,3.69,2.89,2.25,4.41,3.27,3.1,2,4.71,2.83,3.27,1.65,5,2.36,3.41,1.32,5.17,1.86,3.53,1,5.32,1.34,3.61.64,5.44.82,3.65.28,5.48.29h24" style="fill:none;stroke:#ef4950;stroke-linecap:round;stroke-linejoin:round;stroke-width:32px"/></svg>