<svg xmlns="http://www.w3.org/2000/svg" viewBox="0 0 50.32 30.93"><g id="Layer_2" data-name="Layer 2"><g id="Group_171" data-name="Group 171"><path id="Path_66" data-name="Path 66" d="M3.73,30.93c.1-2.85.17-5.69.31-8.53a26.89,26.89,0,0,1,.44-2.81,12.3,12.3,0,0,1,2.35-.11c3.52.06,7.05,0,10.57-.07,4.33,0,8.67.1,13-.13,2-.1,3.94,0,5.92,0,2.28,0,4.56,0,6.84-.06a1,1,0,0,1,.94.26c-.1,0-.21.14-.29.13-.67-.1-.69.18-.57.75a19.3,19.3,0,0,1,.49,4.73c-.09,1.94-.11,3.88-.23,5.81" style="fill:#dbdbdb"/><path id="Path_67" data-name="Path 67" d="M44.11,19.48c-3,.13-6.11,0-9.17.12a17.4,17.4,0,0,1-1.91,0c-3.17-.21-6.34.19-9.52.05-1.21-.06-2.45,0-3.68,0-3.07,0-6.13-.09-9.19.07a43.57,43.57,0,0,0-4.85.1,1.68,1.68,0,0,1-1.31-.21C3.08,18.06,1.69,16.52.27,15c-.43-.47-.35-.62.26-.66,1.3-.09,2.61-.23,3.92-.29.73,0,1.18-.12,1.35-1.05C6.45,9.48,7.24,6,7.94,2.47c.1-.49.2-.62.75-.53C13,2.59,17.22,3.2,21.47,4c1.33.23,2.46-.46,3.65-.85,3-1,5.9-2,8.85-3a.6.6,0,0,1,.8.24.75.75,0,0,1,0,.16C35.89,2.94,37,5.4,38.06,7.87,39,9.93,39.87,12,40.76,14a1.47,1.47,0,0,0,.81.7q3.84,2,7.7,4c.29.15.57.33,1,.6A56,56,0,0,1,44.11,19.48Z" style="fill:#1e232c"/><path id="Path_68" data-name="Path 68" d="M16.26,22.58l9.25.32c.6,0,.58.22.3.64a5.15,5.15,0,0,1-3.38,2.3,3.59,3.59,0,0,1-1.71.27c-1.91-.49-3.62-1.28-4.44-3.26A2.45,2.45,0,0,1,16.26,22.58Z" style="fill:#dd5656"/><path id="Path_69" data-name="Path 69" d="M34.06,26.55a6.63,6.63,0,0,1-3.32-1.61s-.11-.05-.14-.09c-.35-.54-1.16-1-.91-1.65.16-.4,1-.1,1.56-.09,2.68.08,5.35.18,8.15.28a4.3,4.3,0,0,1-2,2.24,4.51,4.51,0,0,1-2.36.8c-.12,0-.25.11-.38.17A.56.56,0,0,1,34.06,26.55Z" style="fill:#dd5656"/></g></g></svg>