<svg id="Layer_1" data-name="Layer 1" xmlns="http://www.w3.org/2000/svg" viewBox="0 0 36 36"><path d="M26.89,15.62l-7.95,8-.1.08-.1.08-.12.07-.11.05-.13.05-.12,0-.13,0h-.26l-.13,0-.12,0-.13-.05-.11-.05-.12-.07-.1-.08-.1-.08-7.95-8L9,15.53,9,15.42l-.06-.11a.61.61,0,0,1-.05-.12.56.56,0,0,1,0-.12l0-.12s0-.09,0-.13v-.13a.49.49,0,0,1,0-.12.51.51,0,0,1,0-.13.27.27,0,0,1,0-.12.56.56,0,0,1,0-.12l.06-.12L9,14l.08-.1.09-.1.09-.08.1-.08.11-.06a.67.67,0,0,1,.12-.06l.12,0,.12,0,.13,0h.25l.13,0,.12,0,.13,0,.11,0,.11.06.11.08.1.08,7,7,7-7,.1-.08.11-.08.11-.06.11,0,.13,0,.12,0,.13,0h.25l.13,0,.12,0,.12,0a.67.67,0,0,1,.12.06l.11.06.1.08.09.08.09.1L27,14l.06.11.06.12a.56.56,0,0,1,0,.12.27.27,0,0,1,0,.12.51.51,0,0,1,0,.13.49.49,0,0,1,0,.12v.13s0,.09,0,.13l0,.12a.56.56,0,0,1,0,.12.61.61,0,0,1-.05.12l-.06.11-.08.11ZM35.23,18A17.23,17.23,0,1,0,18,35.23,17.24,17.24,0,0,0,35.23,18Z" style="fill:#fff"/></svg>