<svg id="Layer_1" data-name="Layer 1" xmlns="http://www.w3.org/2000/svg" viewBox="0 0 33.49 32.71"><path d="M16.74.47a16.29,16.29,0,0,0-5.15,31.74c.82.15,1.12-.35,1.12-.78s0-1.41,0-2.77c-4.53,1-5.48-2.19-5.48-2.19a4.3,4.3,0,0,0-1.81-2.38c-1.48-1,.11-1,.11-1A3.43,3.43,0,0,1,8,24.78a3.47,3.47,0,0,0,4.75,1.35,3.44,3.44,0,0,1,1-2.18c-3.62-.41-7.42-1.8-7.42-8A6.28,6.28,0,0,1,8,11.53a5.82,5.82,0,0,1,.16-4.31s1.36-.44,4.48,1.67a15.37,15.37,0,0,1,8.15,0c3.11-2.11,4.48-1.67,4.48-1.67a5.82,5.82,0,0,1,.16,4.31,6.32,6.32,0,0,1,1.67,4.37c0,6.26-3.81,7.64-7.43,8a3.91,3.91,0,0,1,1.1,3c0,2.18,0,3.93,0,4.47s.3.94,1.12.78A16.29,16.29,0,0,0,16.74.47Z" style="fill:#fff;fill-rule:evenodd"/></svg>