<svg id="Layer_1" data-name="Layer 1" xmlns="http://www.w3.org/2000/svg" viewBox="0 0 32.58 31.77"><path d="M16.29.28a16,16,0,0,0-5.06,31.18c.8.15,1.09-.34,1.09-.77s0-1.38,0-2.72c-4.45,1-5.39-2.14-5.39-2.14a4.2,4.2,0,0,0-1.77-2.34c-1.46-1,.11-1,.11-1A3.39,3.39,0,0,1,7.7,24.16a3.39,3.39,0,0,0,4.65,1.33,3.44,3.44,0,0,1,1-2.14c-3.55-.4-7.29-1.77-7.29-7.9a6.22,6.22,0,0,1,1.65-4.3,5.67,5.67,0,0,1,.16-4.23s1.34-.43,4.4,1.64a15.12,15.12,0,0,1,8,0c3.05-2.07,4.39-1.64,4.39-1.64a5.72,5.72,0,0,1,.16,4.23,6.17,6.17,0,0,1,1.65,4.3c0,6.14-3.75,7.49-7.31,7.89a3.83,3.83,0,0,1,1.09,3c0,2.14,0,3.87,0,4.39s.28.93,1.1.77A16,16,0,0,0,16.29.28Z" style="fill:#191717;fill-rule:evenodd"/></svg>