<svg id="Layer_1" data-name="Layer 1" xmlns="http://www.w3.org/2000/svg" viewBox="0 0 19.06 18.12"><path d="M15.23,6.43c-.09-.18-.36-.36-.36-.63s-.27-3.53-.27-3.53A7.42,7.42,0,0,0,9.53.1,7.37,7.37,0,0,0,4.46,2.27S4.19,5.53,4.19,5.8s-.28.45-.37.63a1.89,1.89,0,0,0,0,1c.09.18.28.27.28.45S4,9.78,4,10.15s.27.54.27.72a28.88,28.88,0,0,0,.63,3.71c.27.82,1.54,3.08,2.72,3.44h3.8c1.18-.36,2.44-2.62,2.71-3.44a27.52,27.52,0,0,0,.64-3.71c0-.18.27-.36.27-.72S15,8.06,15,7.88s.18-.27.27-.45A1.89,1.89,0,0,0,15.23,6.43Zm-2.44,9.69c-.18.27-.55.91-.82.91s-.18-.37-.45-.37H10.43c-.18,0-.18-.27-.36-.27H9c-.18,0-.18.27-.36.27H7.54c-.28,0-.19.37-.46.37s-.63-.64-.81-.91,0-.54.18-.72c0,0,.54.63.81.63s.55-.45.64-.54a9.84,9.84,0,0,1,1.63,0,9.84,9.84,0,0,1,1.63,0c.09.09.36.54.63.54s.82-.63.82-.63C12.79,15.58,13,15.85,12.79,16.12Zm.63-3.62a7.1,7.1,0,0,0-.81,2.35c-.46.55-.64.73-.73.73s-.45-.46-.63-.55a12.22,12.22,0,0,0-1.72-.09A12.22,12.22,0,0,0,7.81,15c-.18.09-.55.55-.64.55s-.27-.18-.72-.73a7,7,0,0,0-.82-2.35c-.54-1.09-1.35-1.9-1.35-2.35a7.84,7.84,0,0,1,.81-1.91s-.09-2.35-.18-5A5.71,5.71,0,0,1,7.45,2.09a22.48,22.48,0,0,1,.9,4.25H10.7a22.76,22.76,0,0,1,.91-4.25,5.65,5.65,0,0,1,2.53,1.18c-.09,2.62-.18,5-.18,5a7.79,7.79,0,0,1,.82,1.91C14.78,10.6,14,11.41,13.42,12.5Z"/><path d="M13.63,9.84l-.64.65a.45.45,0,0,1-.27.12l-1.45.07a.39.39,0,0,1-.33-.15l-.12-.14a.37.37,0,0,0-.31-.15h-2a.39.39,0,0,0-.31.15l-.11.14a.4.4,0,0,1-.34.15l-1.45-.07a.42.42,0,0,1-.26-.12l-.65-.65a.39.39,0,0,1,0-.51l.08-.11a.38.38,0,0,1,.46-.14L8.46,10l.14,0h1.85a.32.32,0,0,0,.14,0l2.54-.95a.39.39,0,0,1,.47.14l.08.11A.4.4,0,0,1,13.63,9.84Z" style="fill:#fff"/></svg>