<svg id="Layer_1" data-name="Layer 1" xmlns="http://www.w3.org/2000/svg" viewBox="0 0 36 36"><g id="Group_266" data-name="Group 266"><path id="Rectangle_111" data-name="Rectangle 111" d="M28.38,6.21h0a15,15,0,0,1,0,21.21h0a15,15,0,0,1-21.21,0h0a15,15,0,0,1,0-21.21h0A15,15,0,0,1,28.38,6.21Z" style="fill:#fff"/><path id="add" d="M36,18A18,18,0,1,0,18,36,18,18,0,0,0,36,18ZM23.09,25.64,18,20.55l-5.09,5.09-2.55-2.55L15.45,18l-5.09-5.09,2.55-2.55L18,15.45l5.09-5.09,2.55,2.55L20.55,18l5.09,5.09Z" style="fill:#ef4a50"/></g></svg>