<svg id="Layer_1" data-name="Layer 1" xmlns="http://www.w3.org/2000/svg" viewBox="0 0 19.06 18.12"><path d="M3.72,7h0c0-.49.06-1,.11-1.45s.07-.62.11-.89L4,4.81A13,13,0,0,0,3.9,7v.15Z"/><path d="M4.05,10H3.83a17.38,17.38,0,0,1-.12-2.57l.18.18h0A22.13,22.13,0,0,0,4.05,10Z"/><path d="M4.26,5.28l.35.61a10.19,10.19,0,0,0-.37,1.6l0,0V7C4.21,6.52,4.22,5.78,4.26,5.28Z"/><path d="M4.37,10a17.33,17.33,0,0,1-.16-2.1h0a9.5,9.5,0,0,0,.3,2.1Z"/><path d="M4.77,12.38a3.57,3.57,0,0,0-.38.3q-.09-.27-.15-.51c-.16-.66-.28-1.28-.37-1.88h.25A16.24,16.24,0,0,0,4.77,12.38Z"/><path d="M4.06,4.16v0A4.05,4.05,0,0,1,5.14,2.06c0,.14.09.28.13.42A16.61,16.61,0,0,0,4.18,4.42Z"/><path d="M5,12.19a15.54,15.54,0,0,1-.59-1.89h.15A7.68,7.68,0,0,0,5.34,12Z"/><path d="M5.39,2.85c.12.36.24.7.37,1a15,15,0,0,0-1,1.65c-.15-.25-.28-.49-.41-.74A18.2,18.2,0,0,1,5.39,2.85Z"/><path d="M6,14.51c-.14.21-.28.43-.41.65A10.43,10.43,0,0,1,4.5,13a4.35,4.35,0,0,1,.41-.34L5,12.9A8.44,8.44,0,0,0,6,14.51Z"/><path d="M5.89,4.24q.27.69.54,1.32a5.17,5.17,0,0,0-.81,1.27c-.23-.32-.46-.65-.66-1A11.49,11.49,0,0,1,5.89,4.24Z"/><path d="M5.31,12.76l-.14-.29.32-.2c.27.43.72,1.17,1,1.56l-.29.42A8.74,8.74,0,0,1,5.31,12.76Z"/><path d="M6.67,13.57c-.26-.4-.66-1.05-.9-1.45a4.11,4.11,0,0,1,.6-.28c.14.15.35.43.55.69a4.37,4.37,0,0,0,.29.37C7,13.11,6.85,13.33,6.67,13.57Z"/><path d="M5.51,2.21c0-.13-.08-.27-.13-.41A5.64,5.64,0,0,1,7.07.66L7.13,1A15,15,0,0,0,5.51,2.21Z"/><path d="M6.57,5.88c.27.63.55,1.2.81,1.71l-.19.25a4.09,4.09,0,0,0-.37.51c-.33-.39-.66-.8-1-1.22A4.28,4.28,0,0,1,6.57,5.88Z"/><path d="M7.19,1.3c.06.3.12.61.17.91A9.83,9.83,0,0,0,6,3.58c-.12-.33-.24-.68-.36-1A12.82,12.82,0,0,1,7.19,1.3Z"/><path d="M7.52,16.45c-.08.24-.16.47-.24.65a7.71,7.71,0,0,1-1.5-1.65c.14-.24.28-.47.43-.7.19.23.39.51.59.79A5.32,5.32,0,0,0,7.52,16.45Z"/><path d="M7.43,2.55c.13.62.25,1.23.38,1.82a4.66,4.66,0,0,0-1.15.94c-.19-.44-.37-.9-.55-1.39A9.59,9.59,0,0,1,7.43,2.55Z"/><path d="M7.41,12.67l-.25-.33c-.17-.22-.34-.45-.48-.61.19-.06.38-.12.57-.16a4.8,4.8,0,0,0,.5.73Z"/><path d="M7.05,15.36a9,9,0,0,0-.66-.87l.27-.39a6.59,6.59,0,0,0,1.23,1.3c-.09.25-.17.5-.25.73A8.86,8.86,0,0,1,7.05,15.36Z"/><path d="M7.53,7.9c.29.55.56,1,.8,1.43A1.9,1.9,0,0,0,8,9.64c-.3-.31-.62-.66-1-1A2.17,2.17,0,0,1,7.43,8Z"/><path d="M8,15.09a6.43,6.43,0,0,1-1.13-1.25c.18-.24.36-.47.55-.69l.12.16a6.63,6.63,0,0,0,.76.86Z"/><path d="M7.87,4.68c.16.75.32,1.45.46,2.1h0a2.43,2.43,0,0,0-.74.54c-.26-.51-.53-1.08-.8-1.7A5.68,5.68,0,0,1,7.87,4.68Z"/><path d="M7.78,13.12l-.17-.21.37-.4a2.92,2.92,0,0,0,.71.44c-.09.29-.19.59-.29.9A7.44,7.44,0,0,1,7.78,13.12Z"/><path d="M8.4,7.09c.17.73.32,1.37.44,1.91a1.59,1.59,0,0,0-.26.14c-.25-.42-.54-.93-.84-1.52A2.14,2.14,0,0,1,8.4,7.09Z"/><path d="M8.74,9.41l.18-.1c.05.23.1.44.15.62C9,9.78,8.86,9.61,8.74,9.41Z"/><path d="M8.78,12.65a2.52,2.52,0,0,1-.59-.36,10.78,10.78,0,0,1,1-.9C9.09,11.7,9,12.14,8.78,12.65Z"/><path d="M9.5,11.42c.09.31.24.77.41,1.3-.18,0-.37,0-.37,0h0s-.24,0-.44,0Z"/><path d="M9.68,9.21h.1c-.12.51-.22.9-.28,1.15-.06-.25-.16-.64-.28-1.15h.46Z"/><path d="M8.66,14c.12-.35.23-.7.33-1l.39,0h.3L10,13c.1.33.22.68.33,1a3,3,0,0,1-.8.12h0A2.56,2.56,0,0,1,8.66,14Z"/><path d="M10.28,9.38l-.35.55c0-.19.1-.41.15-.65A.93.93,0,0,1,10.28,9.38Z"/><path d="M10.83,12.32a2.23,2.23,0,0,1-.61.35c-.17-.52-.31-1-.41-1.28A10.26,10.26,0,0,1,10.83,12.32Z"/><path d="M10.3,7c-.17.73-.32,1.38-.45,1.92H9.38l-.24,0C9,8.38,8.86,7.73,8.7,7A1,1,0,0,1,9,7l.34,0h.3L10,7Z"/><path d="M10.83,4.6c-.16.74-.32,1.44-.46,2.09a1.63,1.63,0,0,0-.38,0c-.12,0-.26,0-.45,0h0c-.19,0-.33,0-.46,0a1.3,1.3,0,0,0-.44,0c-.15-.65-.3-1.35-.46-2.09.33,0,.94-.06,1.36-.06h0C9.93,4.55,10.49,4.57,10.83,4.6Z"/><path d="M8.28,15.19c.1-.28.19-.57.28-.85a2.81,2.81,0,0,0,.82.15h.3a2.63,2.63,0,0,0,.76-.13l.27.83c-.35,0-.93,0-1.17,0h0C9.27,15.22,8.63,15.22,8.28,15.19Z"/><path d="M9.7,10.91l-.09-.06-.11.08-.11-.08-.09.06c-.23-.21-.62-.57-1.08-1a1.72,1.72,0,0,1,.27-.27c.49.78.8,1.2.81,1.21l.2-.1.2.1s.33-.44.83-1.25a2.34,2.34,0,0,1,.28.27C10.33,10.32,9.93,10.69,9.7,10.91Z"/><path d="M9.53,16.47a7.32,7.32,0,0,1-1.63-.16c.09-.26.19-.54.28-.82.33,0,.93,0,1.2,0h.3c.26,0,.8,0,1.13,0,.1.3.2.58.29.84a7.67,7.67,0,0,1-1.56.14Z"/><path d="M11.28,2.38c-.13.66-.26,1.3-.39,1.91l-1.21,0h-.3c-.43,0-1,0-1.27.06C8,3.68,7.85,3.05,7.72,2.39a8.23,8.23,0,0,1,1.16,0h1.31A9.48,9.48,0,0,1,11.28,2.38Z"/><path d="M11.29,7.57l-.41.77-.44.77A1,1,0,0,0,10.16,9c.12-.54.28-1.19.44-1.92A2,2,0,0,1,11.29,7.57Z"/><path d="M11.29,13.12a7.55,7.55,0,0,1-.67.78L10.31,13a2.51,2.51,0,0,0,.74-.43l.37.41Z"/><path d="M9.64.61a5.32,5.32,0,0,1,1.89.49c-.06.33-.13.66-.19,1a8,8,0,0,0-1.16,0H8.89a6.37,6.37,0,0,0-1.23,0c-.06-.32-.13-.64-.19-1h0a5.29,5.29,0,0,1,2-.52Z"/><path d="M11.46,17.32h0a3.28,3.28,0,0,1-3.93,0c.08-.2.16-.43.26-.7a7.09,7.09,0,0,0,1.58.18h.3a7.22,7.22,0,0,0,1.52-.16C11.3,16.89,11.39,17.12,11.46,17.32Z"/><path d="M7.41.81a2.56,2.56,0,0,0,0-.27A6,6,0,0,1,9.53.15a6,6,0,0,1,2.11.37h0c0,.09,0,.17,0,.26A5.4,5.4,0,0,0,9.64.3H9.42A5.66,5.66,0,0,0,7.41.81Z"/><path d="M12.23,5.57c-.27.63-.54,1.2-.79,1.7a2.35,2.35,0,0,0-.77-.51c.15-.65.3-1.36.46-2.11A4.51,4.51,0,0,1,12.23,5.57Z"/><path d="M10.69,9.29c.24-.4.51-.89.8-1.45l.14.19a2.65,2.65,0,0,1,.37.52c-.34.38-.67.74-1,1A2.39,2.39,0,0,0,10.69,9.29Z"/><path d="M11,15.13l-.3-.91a5.72,5.72,0,0,0,.81-.91l.1-.12.55.7A6.21,6.21,0,0,1,11,15.13Z"/><path d="M11.62,12.71c-.11-.13-.23-.25-.34-.37a4.08,4.08,0,0,0,.53-.76,5.18,5.18,0,0,1,.56.17c-.14.16-.3.38-.47.59Z"/><path d="M12.91,3.86c-.18.49-.37,1-.55,1.4a4.33,4.33,0,0,0-1.16-.92c.12-.59.25-1.21.37-1.84A9.11,9.11,0,0,1,12.91,3.86Z"/><path d="M11.38,16.18l-.26-.75a5.45,5.45,0,0,0,1.25-1.28l.27.38c-.21.24-.42.54-.63.83A6.82,6.82,0,0,1,11.38,16.18Z"/><path d="M12.36,13.62c-.18-.24-.36-.46-.54-.67l.33-.42c.19-.25.39-.51.53-.67a5.5,5.5,0,0,1,.6.28C13,12.57,12.62,13.23,12.36,13.62Z"/><path d="M11.64,2.17l.18-.91A13.26,13.26,0,0,1,13.4,2.49c-.12.35-.24.7-.36,1A8.51,8.51,0,0,0,11.64,2.17Z"/><path d="M12.45,5.82a5.11,5.11,0,0,1,.76,1.24h0c-.33.43-.66.85-1,1.24a3.63,3.63,0,0,0-.34-.46c-.09-.11-.17-.22-.23-.31C11.91,7,12.18,6.45,12.45,5.82Z"/><path d="M13.23,15.47v0a8.22,8.22,0,0,1-1.51,1.64c-.08-.19-.16-.4-.24-.65a4.79,4.79,0,0,0,.78-.95,8.89,8.89,0,0,1,.55-.74Z"/><path d="M13.5,2.16A14.78,14.78,0,0,0,11.88.93c0-.1,0-.2,0-.29a5.59,5.59,0,0,1,1.7,1.12l0,0C13.58,1.92,13.54,2,13.5,2.16Z"/><path d="M13.13,4.17a13,13,0,0,1,.95,1.61c-.2.34-.43.67-.66,1a5.21,5.21,0,0,0-.83-1.26C12.77,5.08,13,4.64,13.13,4.17Z"/><path d="M12.85,14.29l-.29-.41c.24-.37.72-1.12,1-1.58l.33.21-.13.25A8.27,8.27,0,0,1,12.85,14.29Z"/><path d="M13.63,2.78a18.33,18.33,0,0,1,1,1.93c-.12.25-.26.5-.4.75a18.64,18.64,0,0,0-1-1.65h0C13.39,3.48,13.51,3.13,13.63,2.78Z"/><path d="M14.53,13h0a11.44,11.44,0,0,1-1.1,2.18c-.14-.22-.27-.44-.41-.65a8,8,0,0,0,1-1.66l.1-.2C14.27,12.8,14.4,12.91,14.53,13Z"/><path d="M14,12.23l-.32-.2a7.66,7.66,0,0,0,.77-1.73h.15A18.43,18.43,0,0,1,14,12.23Z"/><path d="M14.82,7.43a9.92,9.92,0,0,0-.39-1.61h0c.13-.21.25-.43.37-.64,0,.49,0,1.31.06,1.86v.36h0S14.83,7.42,14.82,7.43Z"/><path d="M14.7,10h-.15a9.62,9.62,0,0,0,.3-2.16v0A19,19,0,0,1,14.7,10Z"/><path d="M14.85,4.35a15.89,15.89,0,0,0-1.1-1.94l.12-.4A4.16,4.16,0,0,1,15,4l-.06.13A1.54,1.54,0,0,1,14.85,4.35Z"/><path d="M15,10.29h.23c-.09.6-.21,1.22-.37,1.88,0,.18-.1.36-.16.55a3.47,3.47,0,0,0-.37-.3h0A15.5,15.5,0,0,0,15,10.29Z"/><path d="M15,4.75v0s.05-.1.08-.16c.05.29.09.61.13,1s.08.93.1,1.4l-.06,0-.1.11V7A10.84,10.84,0,0,0,15,4.75Z"/><path d="M15.22,10H15a21.6,21.6,0,0,0,.15-2.46l.17-.16A16.8,16.8,0,0,1,15.22,10Z"/><path d="M9.68,16.78Z"/><path d="M9.68,2.37Z"/><path d="M9.68,15.53Z"/><path d="M9.68,4.24Z" style="fill:#243040"/><path d="M9.68,14.49h0Z"/><path d="M9.68,7h0Z"/><path d="M9.68,13.05Z"/><path d="M9.53,16.78h0Z"/><path d="M9.53,2.37h0Z"/><path d="M9.53,15.53h0Z"/><path d="M9.53,4.24h0Z" style="fill:#243040"/><path d="M9.53,14.5h0Z"/><path d="M9.53,7h0Z"/><path d="M9.53,13.05h0Z"/><path d="M8.91,10.92a29.75,29.75,0,0,0-4-4.25c-.31.11-.62,1.66-.1,3.42s1.56,2.7,2.07,2.59S9,11.23,8.91,10.92Z" style="fill:#fff"/><path d="M10.09,10.92a29.18,29.18,0,0,1,4-4.25c.31.11.62,1.66.1,3.42s-1.55,2.7-2.07,2.59S10,11.23,10.09,10.92Z" style="fill:#fff"/></svg>