<svg id="Layer_1" data-name="Layer 1" xmlns="http://www.w3.org/2000/svg" viewBox="0 0 126.93 20.37"><path d="M78.72,10.19a9.5,9.5,0,1,0-9.5,9.49A9.5,9.5,0,0,0,78.72,10.19Z" style="fill:#784ffe"/><path d="M65.59,7.83l6.69,0-1.6,2.42,3.78,0-1.6,2.37-6.74,0,1.63-2.4H64Z" style="fill:#fff;fill-rule:evenodd"/><path d="M85.34,13.94V12.19l4-4.9H85.43V5.58h6.42V7.19l-4.08,5h4.16v1.75Z" style="fill:#002239"/><path d="M96.47,11.38h-.25l-.65,0a2.49,2.49,0,0,0-.58.11,1,1,0,0,0-.41.25.53.53,0,0,0-.17.41.58.58,0,0,0,.07.28.6.6,0,0,0,.2.19.78.78,0,0,0,.28.11l.29,0a1.18,1.18,0,0,0,.9-.32,1.22,1.22,0,0,0,.32-.88ZM92.91,8.86a3.35,3.35,0,0,1,1.21-.74,4,4,0,0,1,1.41-.25,3.56,3.56,0,0,1,1.26.19,1.89,1.89,0,0,1,.84.56,2.5,2.5,0,0,1,.46,1A5.63,5.63,0,0,1,98.24,11v3H96.47v-.63h0a1.43,1.43,0,0,1-.68.57,2.29,2.29,0,0,1-1,.2A3.25,3.25,0,0,1,94,14a2.39,2.39,0,0,1-.69-.31,1.57,1.57,0,0,1-.51-.57,1.65,1.65,0,0,1-.2-.87,1.49,1.49,0,0,1,.34-1,2.37,2.37,0,0,1,.9-.6,4.62,4.62,0,0,1,1.23-.28,11.8,11.8,0,0,1,1.31-.08v-.09a.71.71,0,0,0-.31-.64,1.3,1.3,0,0,0-.75-.21,1.91,1.91,0,0,0-.81.18,2.51,2.51,0,0,0-.65.42Z" style="fill:#002239"/><path d="M106.23,11a3.64,3.64,0,0,1-.19,1.18,3,3,0,0,1-.55,1,2.87,2.87,0,0,1-.88.69,2.63,2.63,0,0,1-1.18.26,2.45,2.45,0,0,1-1-.22,1.89,1.89,0,0,1-.75-.6h0v3.49H99.69V8.06h1.84v.72h0a2.46,2.46,0,0,1,.75-.62,2.28,2.28,0,0,1,1.13-.27,2.6,2.6,0,0,1,1.16.25,2.54,2.54,0,0,1,.87.67,3,3,0,0,1,.56,1A3.51,3.51,0,0,1,106.23,11Zm-1.88,0a1.77,1.77,0,0,0-.09-.56A1.27,1.27,0,0,0,104,10a1.25,1.25,0,0,0-.43-.35,1.43,1.43,0,0,0-1.19,0,1.7,1.7,0,0,0-.45.35,1.64,1.64,0,0,0-.28.48,1.54,1.54,0,0,0-.1.56,1.49,1.49,0,0,0,.1.55,1.69,1.69,0,0,0,.28.49,1.67,1.67,0,0,0,.45.34,1.25,1.25,0,0,0,.59.13,1.26,1.26,0,0,0,.6-.13A1.23,1.23,0,0,0,104,12a1.44,1.44,0,0,0,.26-.49A1.87,1.87,0,0,0,104.35,11Z" style="fill:#002239"/><path d="M114,11a3.94,3.94,0,0,1-.19,1.18,3.27,3.27,0,0,1-.56,1,3,3,0,0,1-.87.69,2.66,2.66,0,0,1-1.18.26,2.38,2.38,0,0,1-1-.22,1.85,1.85,0,0,1-.76-.6h0v3.49h-1.94V8.06h1.84v.72h0a2.42,2.42,0,0,1,.74-.62,2.32,2.32,0,0,1,1.14-.27,2.63,2.63,0,0,1,1.16.25,2.74,2.74,0,0,1,.87.67,3,3,0,0,1,.55,1A3.28,3.28,0,0,1,114,11Zm-1.88,0a1.54,1.54,0,0,0-.1-.56,1.14,1.14,0,0,0-.26-.47,1.31,1.31,0,0,0-.42-.35,1.48,1.48,0,0,0-.61-.13,1.42,1.42,0,0,0-.59.13,1.51,1.51,0,0,0-.44.35,1.66,1.66,0,0,0-.29.48,1.77,1.77,0,0,0-.09.56,1.52,1.52,0,0,0,.38,1,1.48,1.48,0,0,0,.44.34,1.28,1.28,0,0,0,.59.13,1.33,1.33,0,0,0,.61-.13,1.37,1.37,0,0,0,.68-.83A1.62,1.62,0,0,0,112.12,11Z" style="fill:#002239"/><path d="M119.27,10.33a1.15,1.15,0,0,0-.3-.8,1.07,1.07,0,0,0-.86-.33,1.27,1.27,0,0,0-.52.1,1.09,1.09,0,0,0-.41.23,1.28,1.28,0,0,0-.29.37,1.06,1.06,0,0,0-.12.43Zm1.78.74v.24a1.62,1.62,0,0,1,0,.22h-4.27a1.09,1.09,0,0,0,.15.45,1.47,1.47,0,0,0,.31.35,1.85,1.85,0,0,0,.44.23,1.81,1.81,0,0,0,.51.08,1.67,1.67,0,0,0,.78-.16,1.63,1.63,0,0,0,.52-.45l1.35.85a2.84,2.84,0,0,1-1.1.93,3.7,3.7,0,0,1-1.57.32,4.05,4.05,0,0,1-1.26-.2,3.25,3.25,0,0,1-1-.6,3,3,0,0,1-.69-1,3.29,3.29,0,0,1-.25-1.33,3.21,3.21,0,0,1,.25-1.3,3,3,0,0,1,1.67-1.63,3.48,3.48,0,0,1,1.26-.22,3.07,3.07,0,0,1,1.19.22,2.48,2.48,0,0,1,.93.63,3,3,0,0,1,.61,1A3.82,3.82,0,0,1,121.05,11.07Z" style="fill:#002239"/><path d="M126.07,9.64l-.26-.05h-.24a1.27,1.27,0,0,0-1.08.49,1.28,1.28,0,0,0-.23.43,1.41,1.41,0,0,0-.07.42v3h-1.94V8.06h1.87v.85h0a1.81,1.81,0,0,1,.64-.73,1.67,1.67,0,0,1,1-.29H126l.19,0Z" style="fill:#002239"/><path d="M.78,6.53H3a4.86,4.86,0,0,1,1.06.11A2.14,2.14,0,0,1,4.88,7a1.53,1.53,0,0,1,.52.61,2,2,0,0,1,.19.91,2,2,0,0,1-.21,1,1.85,1.85,0,0,1-.58.63,2.85,2.85,0,0,1-.85.34,4.77,4.77,0,0,1-1,.1H2v2.83H.78Zm2.06,3a5.1,5.1,0,0,0,.57,0,1.49,1.49,0,0,0,.49-.16.85.85,0,0,0,.46-.81A.78.78,0,0,0,4.23,8a.8.8,0,0,0-.33-.3,1.42,1.42,0,0,0-.48-.14,4.63,4.63,0,0,0-.54,0H2v2ZM5.71,11a2.47,2.47,0,0,1,.2-1,2.23,2.23,0,0,1,.54-.77,2.26,2.26,0,0,1,.8-.5,2.94,2.94,0,0,1,2,0,2.26,2.26,0,0,1,.8.5,2.21,2.21,0,0,1,.53.77,2.31,2.31,0,0,1,.21,1,2.37,2.37,0,0,1-.21,1,2.35,2.35,0,0,1-.53.78,2.41,2.41,0,0,1-.8.5,2.65,2.65,0,0,1-2,0,2.41,2.41,0,0,1-.8-.5A2.37,2.37,0,0,1,5.91,12,2.53,2.53,0,0,1,5.71,11Zm1.18,0a2.15,2.15,0,0,0,.08.55,1.57,1.57,0,0,0,.25.48,1.39,1.39,0,0,0,.41.35,1.26,1.26,0,0,0,.6.13,1.21,1.21,0,0,0,.6-.13,1.31,1.31,0,0,0,.42-.35,1.35,1.35,0,0,0,.24-.48A1.81,1.81,0,0,0,9.58,11a1.64,1.64,0,0,0-.09-.53A1.35,1.35,0,0,0,9.25,10a1.28,1.28,0,0,0-.42-.34,1.21,1.21,0,0,0-.6-.13,1.26,1.26,0,0,0-.6.13,1.36,1.36,0,0,0-.41.34A1.57,1.57,0,0,0,7,10.5,2,2,0,0,0,6.89,11Zm4.33-2.3h1.26l1,3.33h0l1-3.33H15.7l1,3.33h0l1-3.33h1.2l-1.6,4.64H16.13l-1-3.24h0L14,13.37H12.84Zm11.69,1.86a1.25,1.25,0,0,0-.07-.43.92.92,0,0,0-.19-.35.79.79,0,0,0-.35-.24,1,1,0,0,0-.48-.1,1.31,1.31,0,0,0-.89.32,1.13,1.13,0,0,0-.4.8Zm1.16.52v.16a.76.76,0,0,1,0,.15H20.53a1.36,1.36,0,0,0,.13.46,1.31,1.31,0,0,0,.3.36,1.27,1.27,0,0,0,.41.23,1.37,1.37,0,0,0,.49.09,1.61,1.61,0,0,0,.73-.15,1.41,1.41,0,0,0,.49-.45l.78.62a2.32,2.32,0,0,1-2,.93,2.91,2.91,0,0,1-1-.17,2.27,2.27,0,0,1-.79-.48,2.34,2.34,0,0,1-.52-.75,2.82,2.82,0,0,1-.19-1,2.71,2.71,0,0,1,.19-1,2.27,2.27,0,0,1,.52-.78,2.35,2.35,0,0,1,.77-.51,2.63,2.63,0,0,1,1-.18,2.35,2.35,0,0,1,.89.16,1.9,1.9,0,0,1,.71.48,2,2,0,0,1,.47.78A3.24,3.24,0,0,1,24.07,11.11Zm1.12-2.38H26.3v.78h0a1.75,1.75,0,0,1,.54-.66,1.36,1.36,0,0,1,.81-.25h.15l.14,0V9.69l-.21,0H27.6a1.19,1.19,0,0,0-.64.15,1.07,1.07,0,0,0-.38.35,1.14,1.14,0,0,0-.18.41,1.85,1.85,0,0,0,0,.34v2.48H25.19Zm6.62,1.86a1.55,1.55,0,0,0-.07-.43.92.92,0,0,0-.19-.35.79.79,0,0,0-.35-.24,1.06,1.06,0,0,0-.48-.1,1.31,1.31,0,0,0-.89.32,1.13,1.13,0,0,0-.4.8Zm1.16.52v.16c0,.05,0,.1,0,.15H29.43a1,1,0,0,0,.13.46,1,1,0,0,0,.3.36,1.27,1.27,0,0,0,.41.23,1.36,1.36,0,0,0,.48.09,1.65,1.65,0,0,0,.74-.15A1.41,1.41,0,0,0,32,12l.77.62a2.31,2.31,0,0,1-2,.93,2.86,2.86,0,0,1-1-.17,2.27,2.27,0,0,1-.79-.48,2.37,2.37,0,0,1-.53-.75,2.82,2.82,0,0,1-.18-1,2.71,2.71,0,0,1,.18-1A2.29,2.29,0,0,1,29,9.29a2.25,2.25,0,0,1,.77-.51,2.61,2.61,0,0,1,1-.18,2.31,2.31,0,0,1,.89.16,1.86,1.86,0,0,1,.72.48,2,2,0,0,1,.46.78A3,3,0,0,1,33,11.11Zm5.83,2.26H37.7v-.69h0a1.61,1.61,0,0,1-.67.62,2.07,2.07,0,0,1-.92.21,2.29,2.29,0,0,1-1-.2A2.27,2.27,0,0,1,34,12a3,3,0,0,1-.15-1,2.67,2.67,0,0,1,.16-.95,2.36,2.36,0,0,1,.47-.78,2.3,2.3,0,0,1,.71-.51,2.12,2.12,0,0,1,.91-.19,2,2,0,0,1,.57.08,1.54,1.54,0,0,1,.43.17,1.74,1.74,0,0,1,.33.23l.23.24h0V6.07H38.8ZM35,11a2.13,2.13,0,0,0,.07.55,1.59,1.59,0,0,0,.26.48,1.27,1.27,0,0,0,.41.35,1.25,1.25,0,0,0,.59.13,1.32,1.32,0,0,0,.57-.12,1.47,1.47,0,0,0,.43-.35,1.42,1.42,0,0,0,.27-.48,1.67,1.67,0,0,0,0-1.08,1.42,1.42,0,0,0-.27-.48,1.47,1.47,0,0,0-.43-.35,1.2,1.2,0,0,0-.57-.13,1.21,1.21,0,0,0-1,.47,1.59,1.59,0,0,0-.26.48A1.93,1.93,0,0,0,35,11Zm8.82-5V9.32h0a2.19,2.19,0,0,1,.22-.24,1.65,1.65,0,0,1,.32-.23,1.62,1.62,0,0,1,.44-.17,2,2,0,0,1,.57-.08,2.12,2.12,0,0,1,.91.19A2.3,2.3,0,0,1,47,9.3a2.36,2.36,0,0,1,.47.78,2.67,2.67,0,0,1,.16.95,2.78,2.78,0,0,1-.16,1,2.33,2.33,0,0,1-.46.78,2.1,2.1,0,0,1-.71.53,2.21,2.21,0,0,1-1,.2,2.11,2.11,0,0,1-.93-.21,1.64,1.64,0,0,1-.66-.62h0v.69h-1.1V6.07Zm2.65,5a2,2,0,0,0-.08-.53,1.57,1.57,0,0,0-.25-.48,1.25,1.25,0,0,0-.41-.34,1.22,1.22,0,0,0-.59-.13,1.2,1.2,0,0,0-.57.13,1.66,1.66,0,0,0-.44.35,1.87,1.87,0,0,0-.27.48,1.86,1.86,0,0,0,0,1.08,1.87,1.87,0,0,0,.27.48,1.66,1.66,0,0,0,.44.35,1.32,1.32,0,0,0,.57.12,1.22,1.22,0,0,0,.59-.13,1.27,1.27,0,0,0,.41-.35,1.57,1.57,0,0,0,.25-.48A2.15,2.15,0,0,0,46.46,11Zm1.6-2.3h1.29l1.29,3.38h0l1.15-3.38H53l-2.19,5.64a5.92,5.92,0,0,1-.27.56,1.58,1.58,0,0,1-.35.41,1.25,1.25,0,0,1-.48.26,2.1,2.1,0,0,1-.66.09l-.3,0a1,1,0,0,1-.3-.05l.1-1,.22.05.21,0a.91.91,0,0,0,.31,0,.43.43,0,0,0,.21-.14,1,1,0,0,0,.16-.22l.14-.32.23-.59Z" style="fill:#002239"/></svg>