<svg id="Layer_1" data-name="Layer 1" xmlns="http://www.w3.org/2000/svg" viewBox="0 0 102.04 177.35"><g id="Group_168" data-name="Group 168"><path id="Path_1" data-name="Path 1" d="M62.3,231,16.07,124.36l-.59.14c.37,2.69.7,5.38,1.1,8.07q4.35,29.85,8.73,59.69c2.57,17.47,5.1,34.94,7.78,52.39a8,8,0,0,1-1.78,7c-6.21,7.51-12.18,15.21-18.24,22.83-.3.38-.63.73-1.3,1.52-.23-3.27-.47-6.07-.64-8.88q-2-33-4-65.91Q5.28,170.62,3.35,140c-.38-6.16-.74-12.32-1.21-18.47A3.42,3.42,0,0,1,3.79,118q22.7-16.16,45.32-32.41a3,3,0,0,0,1.5-2.51Q52.89,43,55.35,2.92a119.39,119.39,0,0,1,1.86,12.77q3.1,24.09,6.09,48.18c.8,6.39,1.57,12.79,2.41,19.18a3.08,3.08,0,0,1-.91,2.8Q49.73,102,34.72,118.18A2.57,2.57,0,0,0,34,121q13.28,51,26.4,102C61.07,225.58,62.18,228.17,62.3,231Z" style="fill:#dd5656"/><path id="Path_4" data-name="Path 4" d="M87.61,0c1.61,5.64,3.25,11.34,4.85,17.05,1,3.4,1,3.31-2.43,2.72-1.82-.32-2.52-1-2.47-2.95C87.71,11.22,87.61,5.62,87.61,0Z" style="fill:#dd5656"/><path id="Path_5" data-name="Path 5" d="M80.34,37.28c-5.36,1.26-10.49,2-15.15-1.45Z" style="fill:#fffef9"/><path id="Path_6" data-name="Path 6" d="M99.93,33.37c0,2.84-1.47,3.4-3.82,3.1-2.63-.33-5.33.19-7.25-.66Z" style="fill:#fffef9"/></g></svg>