<svg id="Layer_1" data-name="Layer 1" xmlns="http://www.w3.org/2000/svg" viewBox="0 0 19.06 18.12"><path d="M5.67,2.89c.21,1.33,0,2.71.58,4a5.18,5.18,0,0,1,6.53,0,4.86,4.86,0,0,0,.42-2c.05-.67.06-1.34.09-2h.1c.11.43.22.86.32,1.29a36.41,36.41,0,0,1,.9,7.64.63.63,0,0,1-.34.63c-1.48.88-2.95,1.78-4.41,2.68a.54.54,0,0,1-.67,0c-1.48-.91-3-1.8-4.44-2.72a.66.66,0,0,1-.3-.47A34.66,34.66,0,0,1,5.57,3.16C5.6,3.06,5.64,3,5.67,2.89ZM8.9,12.63,5.57,11.32A17,17,0,0,0,7,13a.32.32,0,0,0,.23.06Zm1.25,0,1.66.46A.25.25,0,0,0,12,13c.5-.54,1-1.1,1.49-1.65l0-.06Z"/></svg>