<svg id="Layer_1" data-name="Layer 1" xmlns="http://www.w3.org/2000/svg" viewBox="0 0 19.06 18.12"><path d="M4.1,11.52c.19-1.06,1.15-2.4,1.15-2.88S4.39,7.2,4.48,6.52A1.88,1.88,0,0,1,6.6,5.27c1.15.1,3.27,3,3.46,3S11.31,6.43,12,6s1.63-.86,2.12,0-.2,1.54-.29,2.12a4.33,4.33,0,0,0,.29,1.63,5.81,5.81,0,0,0,.19,1.15c.09.1,0-.86.38-1.44s2-3.94,2.79-4.61,1.25-1.25,1.06-1.35-1.25.68-1.44.58.19-.86.67-1.15,1.06-.68,1-.77-1,.19-1.25.38a4.36,4.36,0,0,1-2.31,1c-1.05,0-2.4-1-3.27-1s-2,0-2.21-.29.1-.87.77-.87,1.35.29,1.25.1A2,2,0,0,0,10,.56,6,6,0,0,0,6.6,1.91c-1,.77-2.21,2-3.17,2A4.32,4.32,0,0,1,.54,2.2c-.48-.77,0,1.92.19,2.3s2.5,3.27,2.7,4.14.38,2.79.48,2.88A.13.13,0,0,0,4.1,11.52Z"/><polygon points="6.41 10.75 6.89 8.73 7.56 10.75 6.98 12.68 6.41 10.75"/><path d="M6,10.18H8a.11.11,0,0,1,.11.11,1,1,0,0,1-1.06,1,1.21,1.21,0,0,1-1.23-1A.11.11,0,0,1,6,10.18Z" style="fill:#fff"/><polygon points="12.39 10.75 11.9 8.73 11.23 10.75 11.81 12.68 12.39 10.75"/><path d="M12.83,10.18H10.77a.11.11,0,0,0-.12.11,1,1,0,0,0,1.06,1,1.21,1.21,0,0,0,1.23-1A.11.11,0,0,0,12.83,10.18Z" style="fill:#fff"/><ellipse cx="9.45" cy="13.07" rx="0.77" ry="0.58"/></svg>