<svg id="Layer_1" data-name="Layer 1" xmlns="http://www.w3.org/2000/svg" viewBox="0 0 19.06 18.12"><path d="M1.33,8.56l.81-.39.07.11,1.48-3c1,.33,1.92.63,2.85,1a.48.48,0,0,0,.65-.16c1.19-1.39,2.4-2.76,3.6-4.14L11,1.64l2.77,1.8a1.65,1.65,0,0,1,.25-.15.56.56,0,0,1,.75.21.53.53,0,0,1-.13.76.52.52,0,0,1-.77,0,.42.42,0,0,0-.48-.16l-1.79.34-.11,2.16,1.16-.38c.78-.27,1.57-.52,2.35-.81.26-.1.35,0,.46.2.43.91.88,1.81,1.32,2.69a2.86,2.86,0,0,1,.53.06.49.49,0,0,1,.34.65.91.91,0,0,1-.54.46A.46.46,0,0,1,16.58,9c0-.25-.14-.32-.33-.39-.59-.21-1.18-.42-1.78-.65-.4.59-.77,1.16-1.17,1.71a.65.65,0,0,1-.45.24c-2.22,0-4.45,0-6.67,0a.62.62,0,0,1-.44-.25c-.4-.54-.76-1.1-1.16-1.7l-2,.73a.21.21,0,0,0-.11.15c0,.33-.16.61-.49.6s-.45-.23-.67-.35Z"/><path d="M6,10.35h7A7.61,7.61,0,0,1,11,15.8a2,2,0,0,1-3-.06A6.7,6.7,0,0,1,6.18,12C6.08,11.45,6.05,10.92,6,10.35Zm2,3.23-.12.1a12,12,0,0,0,1,1.26.87.87,0,0,0,1.31,0,10.84,10.84,0,0,0,1-1.27l-.09-.11A2.21,2.21,0,0,1,8,13.58Zm3.77-1.82a1.31,1.31,0,0,0-1.8.41A1.1,1.1,0,0,0,11.79,11.76Zm-2.72.4a1.31,1.31,0,0,0-1.82-.37A1.12,1.12,0,0,0,9.07,12.16Z"/></svg>