<svg xmlns="http://www.w3.org/2000/svg" viewBox="0 0 512 512"><g id="Layer_2" data-name="Layer 2"><path d="M110.5,340.86v24.26c0,20,48.37,36.38,109.12,36.38,59.74,0,109.13-16.34,109.13-36.38V340.83c-23.42,16.57-66.38,24.29-109.13,24.29S133.94,357.4,110.5,340.86ZM292.38,183.25c59.73,0,109.12-16.34,109.12-36.37S352.62,110.5,292.38,110.5c-60.76,0-109.13,16.34-109.13,36.38S231.62,183.25,292.38,183.25Zm-181.88,98v29.32c0,20,48.37,36.38,109.12,36.38,59.74,0,109.13-16.34,109.13-36.38V281.24c-23.42,19.32-66.44,29.32-109.13,29.32S133.94,300.56,110.5,281.24Zm236.44,6.25c32.56-6.37,54.56-18,54.56-31.49V231.67c-13.21,9.38-32.54,15.71-54.56,19.61ZM219.62,201.44c-60.75,0-109.12,20.34-109.12,45.47s48.37,45.47,109.12,45.47c59.74,0,109.13-20.32,109.13-45.47S279.36,201.44,219.62,201.44Zm124.59,31.94c34.16-6.08,57.29-18.19,57.29-31.94V177.11c-20.18,14.28-54.85,22-91.39,23.8C326.93,209.05,339.26,220,344.21,233.38Z" style="fill:#fbc44c"/></g></svg>