<svg xmlns="http://www.w3.org/2000/svg" viewBox="0 0 77.65 77.65"><g id="Layer_2" data-name="Layer 2"><path d="M65.17,77.65H26.34l-.61,0-.61,0-.61-.08-.6-.1-.6-.14-.59-.16-.58-.19-.57-.22L21,76.45l-.55-.28a5.54,5.54,0,0,1-.53-.3,5.69,5.69,0,0,1-.52-.33l-.5-.35-.48-.37-.47-.4L17.52,74l-.42-.44c-.14-.15-.27-.31-.4-.46s-.26-.32-.38-.49-.24-.33-.35-.5l-.33-.52-.3-.53c-.1-.18-.19-.36-.28-.55s-.17-.37-.24-.56a4.82,4.82,0,0,1-.22-.57c-.07-.19-.14-.38-.2-.58s-.11-.39-.16-.59-.09-.4-.13-.6S14,67.2,14,67s-.05-.4-.07-.61,0-.4,0-.61,0-.41,0-.61V26.34c0-.2,0-.4,0-.61s0-.41,0-.61,0-.4.07-.61.07-.4.11-.6.08-.4.13-.6.1-.39.16-.59.13-.39.2-.58.14-.38.22-.57.16-.38.24-.56.18-.37.28-.55l.3-.53.33-.52c.11-.17.23-.33.35-.5l.38-.48.4-.47.42-.44L18,17.1l.47-.4.48-.38.5-.35.52-.33.53-.3.55-.28c.18-.08.37-.17.56-.24s.38-.16.57-.22l.58-.2.59-.16.6-.13.6-.11.61-.07.61,0H65.78l.61,0L67,14l.6.11.6.13.59.16.58.2a4.82,4.82,0,0,1,.57.22c.19.07.38.16.56.24l.55.28.53.3.52.33.5.35c.17.12.33.25.49.38l.46.4.44.42.43.44.4.47.37.48c.12.17.24.33.35.5a5.69,5.69,0,0,1,.33.52,5.54,5.54,0,0,1,.3.53c.1.18.19.36.28.55s.17.37.25.56.15.38.22.57.13.39.19.58.11.39.16.59.1.4.14.6.07.4.1.6.06.41.08.61,0,.41,0,.61,0,.41,0,.61V65.17c0,.2,0,.41,0,.61s0,.41,0,.61,0,.41-.08.61-.06.4-.1.6-.09.4-.14.6-.1.4-.16.59-.12.39-.19.58-.14.39-.22.57-.16.38-.25.56-.18.37-.28.55a5.54,5.54,0,0,1-.3.53,5.69,5.69,0,0,1-.33.52c-.11.17-.23.34-.35.5s-.25.33-.37.49l-.4.46c-.14.15-.28.3-.43.44s-.29.29-.44.43l-.46.4-.49.37-.5.35a5.69,5.69,0,0,1-.52.33,5.54,5.54,0,0,1-.53.3l-.55.28-.56.25c-.18.08-.37.15-.57.22l-.58.19-.59.16-.6.14-.6.1-.61.08-.61,0Z" style="fill:#6988b7"/><path d="M22.19,8.32H63.07c-.11-.3-.23-.6-.36-.89s-.27-.58-.42-.86a8.61,8.61,0,0,0-.49-.83c-.17-.27-.35-.53-.55-.79s-.39-.5-.61-.74-.43-.47-.66-.69-.47-.44-.71-.64-.5-.4-.76-.59-.53-.36-.81-.52-.55-.32-.84-.46S56.28,1,56,.92s-.59-.23-.9-.33-.61-.18-.92-.26S53.53.2,53.22.15s-.64-.09-1-.11-.64,0-1,0H12.48l-.61,0-.61,0-.61.08L10,.24,9.45.37,8.86.54,8.28.73,7.7,1l-.56.25-.54.27-.54.31-.51.32c-.17.12-.34.23-.5.36l-.49.37-.46.4c-.15.14-.3.28-.44.43s-.29.29-.43.44-.27.3-.4.46-.25.32-.37.49-.24.33-.36.5-.22.34-.32.51-.21.36-.31.54l-.27.54c-.09.19-.17.37-.25.56s-.15.38-.22.58-.13.38-.19.58-.12.39-.17.59S.28,9.84.24,10s-.07.41-.1.61-.06.4-.08.61,0,.4,0,.61,0,.4,0,.61V51.3c0,.32,0,.64,0,1s.06.64.11,1,.11.63.18.94.16.62.26.92.21.61.33.9.25.59.39.88.3.57.46.84.34.54.52.81.38.51.59.76.42.48.64.71.45.45.69.66.49.42.74.61.52.38.79.55a8.61,8.61,0,0,0,.83.49c.28.15.57.29.86.42s.59.25.89.36V22.19c0-.23,0-.46,0-.69s0-.45.05-.67,0-.45.08-.68.07-.45.12-.67.09-.44.14-.66.12-.44.19-.66.13-.43.21-.65l.24-.63c.09-.21.18-.42.28-.62s.2-.41.31-.61.22-.4.33-.59.24-.39.37-.58.25-.37.39-.55a5.56,5.56,0,0,1,.42-.54c.14-.18.29-.35.44-.52l.47-.49.49-.47c.17-.15.34-.3.52-.44a5.56,5.56,0,0,1,.54-.42c.18-.14.36-.27.55-.39l.58-.37c.19-.11.39-.23.59-.33l.61-.31.62-.28.63-.24c.22-.08.43-.15.65-.21l.66-.19.66-.14c.22-.05.45-.09.67-.12l.68-.08c.22,0,.45,0,.67-.05S22,8.32,22.19,8.32Z" style="fill:#6988b7"/></g></svg>