<svg id="ebe6VpdPoAy1" xmlns="http://www.w3.org/2000/svg" xmlns:xlink="http://www.w3.org/1999/xlink" viewBox="0 0 50.32 30.93" shape-rendering="geometricPrecision" text-rendering="geometricPrecision"><style><![CDATA[#ebe6VpdPoAy2_to {animation: ebe6VpdPoAy2_to__to 10000ms linear 1 normal forwards}@keyframes ebe6VpdPoAy2_to__to { 0% {transform: translate(25.134784px,49.026275px)} 16% {transform: translate(25.134784px,49.026275px);animation-timing-function: cubic-bezier(0,0,0.58,1)} 44% {transform: translate(25.134784px,15.506322px)} 100% {transform: translate(25.134784px,15.506322px)}} #ebe6VpdPoAy6_to {animation: ebe6VpdPoAy6_to__to 10000ms linear 1 normal forwards}@keyframes ebe6VpdPoAy6_to__to { 0% {transform: translate(27.830001px,24.622217px)} 42.7% {transform: translate(27.830001px,24.622217px);animation-timing-function: cubic-bezier(0.645,0.045,0.355,1)} 69% {transform: translate(21.255509px,24.622217px);animation-timing-function: cubic-bezier(0.645,0.045,0.355,1)} 99% {transform: translate(27.830001px,24.622217px)} 100% {transform: translate(27.830001px,24.622217px)}}]]></style><g id="ebe6VpdPoAy2_to" transform="translate(25.134784,49.026275)"><g id="ebe6VpdPoAy2" transform="translate(-25.134784,-15.506322)"><g id="ebe6VpdPoAy3"><path id="ebe6VpdPoAy4" d="M3.73,30.93C3.83,28.08,3.9,25.24,4.04,22.4C4.136992,21.456227,4.283864,20.518249,4.48,19.59C5.258019,19.478333,6.044951,19.441498,6.83,19.48C10.35,19.54,13.88,19.48,17.4,19.41C21.73,19.41,26.07,19.51,30.4,19.28C32.4,19.18,34.34,19.28,36.32,19.28C38.6,19.28,40.88,19.28,43.16,19.22C43.497222,19.137639,43.853033,19.236055,44.1,19.48C44,19.48,43.89,19.62,43.81,19.61C43.14,19.51,43.12,19.79,43.24,20.36C43.597688,21.91044,43.762271,23.499163,43.73,25.09C43.64,27.03,43.62,28.97,43.5,30.9" fill="rgb(219,219,219)" stroke="none" stroke-width="1"/><path id="ebe6VpdPoAy5" d="M44.11,19.48C41.11,19.61,38,19.48,34.94,19.6C34.303814,19.63497,33.666186,19.63497,33.03,19.6C29.86,19.39,26.69,19.79,23.51,19.65C22.3,19.59,21.06,19.65,19.83,19.65C16.76,19.65,13.7,19.56,10.64,19.72C9.022731,19.663239,7.403555,19.696624,5.79,19.82C5.343015,19.932688,4.869363,19.856759,4.48,19.61C3.08,18.06,1.69,16.52,0.27,15C-0.16,14.53,-0.08,14.38,0.53,14.34C1.83,14.25,3.14,14.11,4.45,14.05C5.18,14.05,5.63,13.93,5.8,13C6.45,9.48,7.24,6,7.94,2.47C8.04,1.98,8.14,1.85,8.69,1.94C13,2.59,17.22,3.2,21.47,4C22.8,4.23,23.93,3.54,25.12,3.15C28.12,2.15,31.02,1.15,33.97,0.15C34.257719,0.000801,34.611922,0.107062,34.77,0.39C34.775705,0.443181,34.775705,0.496819,34.77,0.55C35.89,2.94,37,5.4,38.06,7.87C39,9.93,39.87,12,40.76,14C40.932417,14.326851,41.221612,14.576773,41.57,14.7Q45.41,16.7,49.27,18.7C49.56,18.85,49.84,19.03,50.27,19.3C48.221527,19.473022,46.165081,19.533113,44.11,19.48Z" fill="rgb(30,35,44)" stroke="none" stroke-width="1"/><g id="ebe6VpdPoAy6_to" transform="translate(27.830001,24.622217)"><g id="ebe6VpdPoAy6" transform="translate(-27.830001,-24.622216)"><path id="ebe6VpdPoAy7" d="M16.26,22.58L25.51,22.9C26.11,22.9,26.09,23.12,25.81,23.54C25.048936,24.740185,23.825751,25.57253,22.43,25.84C21.890559,26.068144,21.303491,26.160839,20.72,26.11C18.81,25.62,17.1,24.83,16.28,22.85C16.268362,22.760437,16.261685,22.6703,16.26,22.58Z" fill="rgb(221,86,86)" stroke="none" stroke-width="1"/><path id="ebe6VpdPoAy8" d="M34.06,26.55C32.823284,26.338294,31.672029,25.780005,30.74,24.94C29.807971,24.099995,30.63,24.89,30.6,24.85C30.25,24.31,29.44,23.85,29.69,23.2C29.85,22.8,30.69,23.1,31.25,23.11C33.93,23.19,36.6,23.29,39.4,23.39C39.024188,24.352754,38.314195,25.147946,37.4,25.63C36.704078,26.113016,35.886188,26.390267,35.04,26.43C34.92,26.43,34.79,26.54,34.66,26.6C34.46729,26.70141,34.233267,26.681908,34.06,26.55Z" fill="rgb(221,86,86)" stroke="none" stroke-width="1"/></g></g></g></g></g></svg>