<?xml version="1.0" encoding="utf-8"?>
<!-- Generator: Adobe Illustrator 24.3.0, SVG Export Plug-In . SVG Version: 6.00 Build 0)  -->
<svg version="1.1" id="Layer_1" xmlns="http://www.w3.org/2000/svg" xmlns:xlink="http://www.w3.org/1999/xlink" x="0px" y="0px"
	 viewBox="0 0 512 512" style="enable-background:new 0 0 512 512;" xml:space="preserve">
<style type="text/css">
	.st0{fill:#FFFFFF;}
</style>
<path class="st0" d="M308.2,373.5h-95.7c-0.6,0-1.1,0-1.7-0.1c-0.6-0.1-1.1-0.1-1.7-0.3c-0.6-0.1-1.1-0.2-1.7-0.4s-1.1-0.4-1.6-0.6
	c-0.5-0.2-1-0.5-1.5-0.7c-0.5-0.3-1-0.6-1.5-0.9c-0.5-0.3-0.9-0.7-1.4-1c-0.4-0.4-0.9-0.7-1.3-1.1c-0.4-0.4-0.8-0.8-1.1-1.3
	c-0.4-0.4-0.7-0.9-1-1.4c-0.3-0.5-0.6-1-0.9-1.5s-0.5-1-0.7-1.5c-0.2-0.5-0.4-1.1-0.6-1.6s-0.3-1.1-0.4-1.7s-0.2-1.1-0.3-1.7
	c-0.1-0.6-0.1-1.1-0.1-1.7c0-0.6,0-1.1,0.1-1.7c0.1-0.6,0.1-1.1,0.3-1.7c0.1-0.6,0.2-1.1,0.4-1.7c0.2-0.5,0.4-1.1,0.6-1.6
	c0.2-0.5,0.5-1,0.7-1.5s0.6-1,0.9-1.5c0.3-0.5,0.7-0.9,1-1.4c0.4-0.4,0.7-0.9,1.1-1.3c0.4-0.4,0.8-0.8,1.3-1.1
	c0.4-0.4,0.9-0.7,1.4-1c0.5-0.3,1-0.6,1.5-0.9c0.5-0.3,1-0.5,1.5-0.7c0.5-0.2,1.1-0.4,1.6-0.6c0.5-0.2,1.1-0.3,1.7-0.4
	c0.6-0.1,1.1-0.2,1.7-0.3c0.6-0.1,1.1-0.1,1.7-0.1h30.5v-95.7h-17.4c-0.6,0-1.1,0-1.7-0.1s-1.1-0.1-1.7-0.3
	c-0.6-0.1-1.1-0.2-1.7-0.4c-0.5-0.2-1.1-0.4-1.6-0.6c-0.5-0.2-1-0.5-1.5-0.7c-0.5-0.3-1-0.6-1.5-0.9c-0.5-0.3-0.9-0.7-1.4-1
	c-0.4-0.4-0.9-0.7-1.3-1.1c-0.4-0.4-0.8-0.8-1.1-1.3c-0.4-0.4-0.7-0.9-1-1.4c-0.3-0.5-0.6-1-0.9-1.5c-0.3-0.5-0.5-1-0.7-1.5
	c-0.2-0.5-0.4-1.1-0.6-1.6s-0.3-1.1-0.4-1.7c-0.1-0.6-0.2-1.1-0.3-1.7c-0.1-0.6-0.1-1.1-0.1-1.7c0-0.6,0-1.1,0.1-1.7
	c0.1-0.6,0.1-1.1,0.3-1.7c0.1-0.6,0.2-1.1,0.4-1.7c0.2-0.5,0.4-1.1,0.6-1.6c0.2-0.5,0.5-1,0.7-1.5c0.3-0.5,0.6-1,0.9-1.5
	c0.3-0.5,0.7-0.9,1-1.4c0.4-0.4,0.7-0.9,1.1-1.3c0.4-0.4,0.8-0.8,1.3-1.1c0.4-0.4,0.9-0.7,1.4-1c0.5-0.3,1-0.6,1.5-0.9
	c0.5-0.3,1-0.5,1.5-0.7c0.5-0.2,1.1-0.4,1.6-0.6c0.5-0.2,1.1-0.3,1.7-0.4c0.6-0.1,1.1-0.2,1.7-0.3c0.6-0.1,1.1-0.1,1.7-0.1h34.8
	c0.6,0,1.1,0,1.7,0.1c0.6,0.1,1.1,0.1,1.7,0.3c0.6,0.1,1.1,0.2,1.7,0.4c0.5,0.2,1.1,0.4,1.6,0.6c0.5,0.2,1,0.5,1.5,0.7
	c0.5,0.3,1,0.6,1.5,0.9c0.5,0.3,0.9,0.7,1.4,1s0.9,0.7,1.3,1.1c0.4,0.4,0.8,0.8,1.1,1.3c0.4,0.4,0.7,0.9,1,1.4
	c0.3,0.5,0.6,1,0.9,1.5c0.3,0.5,0.5,1,0.7,1.5c0.2,0.5,0.4,1.1,0.6,1.6c0.2,0.5,0.3,1.1,0.4,1.7c0.1,0.6,0.2,1.1,0.3,1.7
	c0.1,0.6,0.1,1.1,0.1,1.7v113.1h30.5c0.6,0,1.1,0,1.7,0.1c0.6,0.1,1.1,0.1,1.7,0.3c0.6,0.1,1.1,0.2,1.7,0.4c0.5,0.2,1.1,0.4,1.6,0.6
	c0.5,0.2,1,0.5,1.5,0.7c0.5,0.3,1,0.6,1.5,0.9c0.5,0.3,0.9,0.7,1.4,1c0.4,0.4,0.9,0.7,1.3,1.1c0.4,0.4,0.8,0.8,1.1,1.3
	c0.4,0.4,0.7,0.9,1,1.4c0.3,0.5,0.6,1,0.9,1.5c0.3,0.5,0.5,1,0.7,1.5c0.2,0.5,0.4,1.1,0.6,1.6c0.2,0.5,0.3,1.1,0.4,1.7
	c0.1,0.6,0.2,1.1,0.3,1.7c0.1,0.6,0.1,1.1,0.1,1.7c0,0.6,0,1.1-0.1,1.7c-0.1,0.6-0.1,1.1-0.3,1.7c-0.1,0.6-0.2,1.1-0.4,1.7
	s-0.4,1.1-0.6,1.6c-0.2,0.5-0.5,1-0.7,1.5c-0.3,0.5-0.6,1-0.9,1.5c-0.3,0.5-0.7,0.9-1,1.4c-0.4,0.4-0.7,0.9-1.1,1.3
	c-0.4,0.4-0.8,0.8-1.3,1.1c-0.4,0.4-0.9,0.7-1.4,1c-0.5,0.3-1,0.6-1.5,0.9c-0.5,0.3-1,0.5-1.5,0.7c-0.5,0.2-1.1,0.4-1.6,0.6
	c-0.5,0.2-1.1,0.3-1.7,0.4c-0.6,0.1-1.1,0.2-1.7,0.3C309.3,373.4,308.8,373.5,308.2,373.5z M256,127.7c0.9,0,1.9,0,2.8,0.1
	c0.9,0.1,1.8,0.2,2.7,0.4c0.9,0.2,1.8,0.4,2.7,0.7s1.8,0.6,2.6,0.9s1.7,0.7,2.5,1.2s1.6,0.9,2.4,1.4c0.8,0.5,1.5,1.1,2.2,1.7
	c0.7,0.6,1.4,1.2,2.1,1.9c0.7,0.7,1.3,1.3,1.9,2.1s1.1,1.5,1.7,2.2s1,1.6,1.4,2.4s0.8,1.7,1.2,2.5c0.4,0.9,0.7,1.7,0.9,2.6
	c0.3,0.9,0.5,1.8,0.7,2.7c0.2,0.9,0.3,1.8,0.4,2.7c0.1,0.9,0.1,1.8,0.1,2.8c0,0.9,0,1.9-0.1,2.8c-0.1,0.9-0.2,1.8-0.4,2.7
	c-0.2,0.9-0.4,1.8-0.7,2.7c-0.3,0.9-0.6,1.8-0.9,2.6c-0.4,0.9-0.7,1.7-1.2,2.5c-0.4,0.8-0.9,1.6-1.4,2.4s-1.1,1.5-1.7,2.2
	c-0.6,0.7-1.2,1.4-1.9,2.1s-1.3,1.3-2.1,1.9c-0.7,0.6-1.5,1.1-2.2,1.7c-0.8,0.5-1.6,1-2.4,1.4s-1.7,0.8-2.5,1.2
	c-0.9,0.4-1.7,0.7-2.6,0.9c-0.9,0.3-1.8,0.5-2.7,0.7c-0.9,0.2-1.8,0.3-2.7,0.4s-1.8,0.1-2.8,0.1c-0.9,0-1.9,0-2.8-0.1
	s-1.8-0.2-2.7-0.4c-0.9-0.2-1.8-0.4-2.7-0.7s-1.8-0.6-2.6-0.9c-0.9-0.4-1.7-0.7-2.5-1.2c-0.8-0.4-1.6-0.9-2.4-1.4
	c-0.8-0.5-1.5-1.1-2.2-1.7c-0.7-0.6-1.4-1.2-2.1-1.9c-0.7-0.7-1.3-1.3-1.9-2.1c-0.6-0.7-1.1-1.5-1.7-2.2c-0.5-0.8-1-1.6-1.4-2.4
	c-0.4-0.8-0.8-1.7-1.2-2.5c-0.4-0.9-0.7-1.7-0.9-2.6c-0.3-0.9-0.5-1.8-0.7-2.7c-0.2-0.9-0.3-1.8-0.4-2.7c-0.1-0.9-0.1-1.8-0.1-2.8
	c0-0.9,0-1.9,0.1-2.8c0.1-0.9,0.2-1.8,0.4-2.7c0.2-0.9,0.4-1.8,0.7-2.7c0.3-0.9,0.6-1.8,0.9-2.6c0.4-0.9,0.7-1.7,1.2-2.5
	c0.4-0.8,0.9-1.6,1.4-2.4c0.5-0.8,1.1-1.5,1.7-2.2s1.2-1.4,1.9-2.1c0.7-0.7,1.3-1.3,2.1-1.9c0.7-0.6,1.5-1.1,2.2-1.7s1.6-1,2.4-1.4
	c0.8-0.4,1.7-0.8,2.5-1.2c0.9-0.4,1.7-0.7,2.6-0.9s1.8-0.5,2.7-0.7c0.9-0.2,1.8-0.3,2.7-0.4C254.1,127.7,255.1,127.7,256,127.7z
	 M256,38.5C136.1,38.5,38.5,136.1,38.5,256S136.1,473.5,256,473.5S473.5,375.9,473.5,256S375.9,38.5,256,38.5z"/>
</svg>
