<svg id="Layer_1" data-name="Layer 1" xmlns="http://www.w3.org/2000/svg" viewBox="0 0 512 512"><path d="M308.2,373.5H212.5a9.7,9.7,0,0,1-1.7-.1,10.1,10.1,0,0,1-1.7-.3,10.46,10.46,0,0,1-1.7-.4c-.6-.2-1.1-.4-1.6-.6s-1-.5-1.5-.7l-1.5-.9c-.5-.3-.9-.7-1.4-1s-.9-.7-1.3-1.1a6.89,6.89,0,0,1-1.1-1.3,7.1,7.1,0,0,1-1-1.4l-.9-1.5a10.09,10.09,0,0,1-.7-1.5c-.2-.5-.4-1.1-.6-1.6a8.47,8.47,0,0,1-.4-1.7c-.1-.6-.2-1.1-.3-1.7a14.5,14.5,0,0,1,0-3.4,10.1,10.1,0,0,1,.3-1.7,10.46,10.46,0,0,1,.4-1.7c.2-.5.4-1.1.6-1.6s.5-1,.7-1.5a11.91,11.91,0,0,1,.9-1.5c.3-.5.7-.9,1-1.4s.7-.9,1.1-1.3a6.89,6.89,0,0,1,1.3-1.1,7.1,7.1,0,0,1,1.4-1l1.5-.9a10.09,10.09,0,0,1,1.5-.7c.5-.2,1.1-.4,1.6-.6a8.47,8.47,0,0,1,1.7-.4l1.7-.3a9.7,9.7,0,0,1,1.7-.1H243V242.8H225.6a9.7,9.7,0,0,1-1.7-.1,10.1,10.1,0,0,1-1.7-.3,10.46,10.46,0,0,1-1.7-.4c-.5-.2-1.1-.4-1.6-.6s-1-.5-1.5-.7l-1.5-.9c-.5-.3-.9-.7-1.4-1s-.9-.7-1.3-1.1a6.89,6.89,0,0,1-1.1-1.3,7.1,7.1,0,0,1-1-1.4l-.9-1.5a10.09,10.09,0,0,1-.7-1.5c-.2-.5-.4-1.1-.6-1.6a8.47,8.47,0,0,1-.4-1.7c-.1-.6-.2-1.1-.3-1.7a14.5,14.5,0,0,1,0-3.4,10.1,10.1,0,0,1,.3-1.7,10.46,10.46,0,0,1,.4-1.7c.2-.5.4-1.1.6-1.6s.5-1,.7-1.5l.9-1.5c.3-.5.7-.9,1-1.4s.7-.9,1.1-1.3a6.89,6.89,0,0,1,1.3-1.1,7.1,7.1,0,0,1,1.4-1l1.5-.9a10.09,10.09,0,0,1,1.5-.7c.5-.2,1.1-.4,1.6-.6a8.47,8.47,0,0,1,1.7-.4l1.7-.3a9.7,9.7,0,0,1,1.7-.1h34.8a9.7,9.7,0,0,1,1.7.1,10.1,10.1,0,0,1,1.7.3,10.46,10.46,0,0,1,1.7.4c.5.2,1.1.4,1.6.6s1,.5,1.5.7l1.5.9c.5.3.9.7,1.4,1a10.25,10.25,0,0,1,2.4,2.4,7.1,7.1,0,0,1,1,1.4l.9,1.5a10.09,10.09,0,0,1,.7,1.5c.2.5.4,1.1.6,1.6a8.47,8.47,0,0,1,.4,1.7c.1.6.2,1.1.3,1.7a9.7,9.7,0,0,1,.1,1.7V338.4h30.5a9.7,9.7,0,0,1,1.7.1,10.1,10.1,0,0,1,1.7.3,10.46,10.46,0,0,1,1.7.4c.5.2,1.1.4,1.6.6s1,.5,1.5.7l1.5.9c.5.3.9.7,1.4,1s.9.7,1.3,1.1a6.89,6.89,0,0,1,1.1,1.3,7.1,7.1,0,0,1,1,1.4l.9,1.5a10.09,10.09,0,0,1,.7,1.5c.2.5.4,1.1.6,1.6a8.47,8.47,0,0,1,.4,1.7c.1.6.2,1.1.3,1.7a14.5,14.5,0,0,1,0,3.4,10.1,10.1,0,0,1-.3,1.7,10.46,10.46,0,0,1-.4,1.7c-.2.6-.4,1.1-.6,1.6s-.5,1-.7,1.5l-.9,1.5c-.3.5-.7.9-1,1.4s-.7.9-1.1,1.3a6.89,6.89,0,0,1-1.3,1.1,7.1,7.1,0,0,1-1.4,1l-1.5.9a10.09,10.09,0,0,1-1.5.7c-.5.2-1.1.4-1.6.6a8.47,8.47,0,0,1-1.7.4l-1.7.3A15.41,15.41,0,0,1,308.2,373.5ZM256,127.7a26.2,26.2,0,0,1,2.8.1,25.12,25.12,0,0,1,2.7.4,26.81,26.81,0,0,1,2.7.7c.9.3,1.8.6,2.6.9a14.24,14.24,0,0,1,2.5,1.2c.8.5,1.6.9,2.4,1.4a18.39,18.39,0,0,1,2.2,1.7c.7.6,1.4,1.2,2.1,1.9a19,19,0,0,1,1.9,2.1c.6.8,1.1,1.5,1.7,2.2a11.57,11.57,0,0,1,1.4,2.4c.4.8.8,1.7,1.2,2.5a13.38,13.38,0,0,1,.9,2.6,26.81,26.81,0,0,1,.7,2.7,24.84,24.84,0,0,1,.5,5.5,26.2,26.2,0,0,1-.1,2.8,25.12,25.12,0,0,1-.4,2.7,26.81,26.81,0,0,1-.7,2.7c-.3.9-.6,1.8-.9,2.6a19.23,19.23,0,0,1-1.2,2.5c-.4.8-.9,1.6-1.4,2.4a18.39,18.39,0,0,1-1.7,2.2c-.6.7-1.2,1.4-1.9,2.1a19,19,0,0,1-2.1,1.9c-.7.6-1.5,1.1-2.2,1.7s-1.6,1-2.4,1.4-1.7.8-2.5,1.2a13.38,13.38,0,0,1-2.6.9,26.81,26.81,0,0,1-2.7.7,24.84,24.84,0,0,1-5.5.5,26.2,26.2,0,0,1-2.8-.1,25.12,25.12,0,0,1-2.7-.4,26.81,26.81,0,0,1-2.7-.7c-.9-.3-1.8-.6-2.6-.9a19.23,19.23,0,0,1-2.5-1.2c-.8-.4-1.6-.9-2.4-1.4a18.39,18.39,0,0,1-2.2-1.7c-.7-.6-1.4-1.2-2.1-1.9a19,19,0,0,1-1.9-2.1c-.6-.7-1.1-1.5-1.7-2.2s-1-1.6-1.4-2.4-.8-1.7-1.2-2.5a13.38,13.38,0,0,1-.9-2.6,26.81,26.81,0,0,1-.7-2.7,24.84,24.84,0,0,1-.5-5.5,26.2,26.2,0,0,1,.1-2.8,25.12,25.12,0,0,1,.4-2.7,26.81,26.81,0,0,1,.7-2.7c.3-.9.6-1.8.9-2.6a19.23,19.23,0,0,1,1.2-2.5c.4-.8.9-1.6,1.4-2.4a18.39,18.39,0,0,1,1.7-2.2c.6-.7,1.2-1.4,1.9-2.1a19,19,0,0,1,2.1-1.9c.7-.6,1.5-1.1,2.2-1.7a11.57,11.57,0,0,1,2.4-1.4c.8-.4,1.7-.8,2.5-1.2a13.38,13.38,0,0,1,2.6-.9c.9-.2,1.8-.5,2.7-.7a25.12,25.12,0,0,1,2.7-.4A26.2,26.2,0,0,1,256,127.7Zm0-89.2C136.1,38.5,38.5,136.1,38.5,256S136.1,473.5,256,473.5,473.5,375.9,473.5,256,375.9,38.5,256,38.5Z" style="fill:#273143"/></svg>