<svg id="Layer_1" data-name="Layer 1" xmlns="http://www.w3.org/2000/svg" viewBox="0 0 19.06 18.12"><path d="M10.08,1.75l.33.05a7.47,7.47,0,0,1,2,.52,5.53,5.53,0,0,1,1.5.88,1,1,0,0,1,.25.5A11,11,0,0,1,14.41,5c.08.48.12,1,.18,1.46,0,.11,0,.22,0,.33.3,0,.33.07.32.35l0,1.28-.06,1.47c0,.21-.11.3-.32.3h-.17c-.09.33-.17.65-.25,1-.11.48-.22,1-.35,1.44a6.49,6.49,0,0,1-.35,1.08,5.22,5.22,0,0,1-.58,1,8.88,8.88,0,0,1-.85,1,2,2,0,0,1-1,.61,5,5,0,0,1-.54.07c-.45,0-.89,0-1.34,0a5,5,0,0,1-1.22-.14,1.62,1.62,0,0,1-.54-.31A7.19,7.19,0,0,1,5.75,14a3.94,3.94,0,0,1-.45-1.15c-.13-.46-.24-.92-.36-1.39l-.3-1.29s0,0,0,0c-.29,0-.38-.07-.38-.42l0-1.16c0-.52,0-1-.07-1.57a.22.22,0,0,1,.23-.24c.09,0,.12,0,.13-.13,0-.41.06-.81.11-1.22A10.36,10.36,0,0,1,5,3.63,1.26,1.26,0,0,1,5.54,3,7.18,7.18,0,0,1,8.06,1.9a8.89,8.89,0,0,1,.88-.13l.06,0ZM11.54,15.5l.65-.56s0,0,0-.08a1,1,0,0,0,0-.68,3.91,3.91,0,0,1,0-1.08,1.43,1.43,0,0,1,.14-.5c.15-.33.34-.66.51-1l.37-.66a6,6,0,0,0,.34-.61,9,9,0,0,0,.25-.89s0-.06,0-.09c-.07-.22-.15-.43-.22-.65a1.88,1.88,0,0,1-.18-.81c0-.31,0-.63,0-.94l0-1c0-.46,0-.92,0-1.39a.57.57,0,0,0-.18-.52c-.07-.05-.11-.14-.17-.2a2.85,2.85,0,0,0-.42-.43,4.43,4.43,0,0,0-1.44-.59c0,.24-.07.46-.1.69s-.09.77-.15,1.15-.15,1-.22,1.52c0,.14-.06.25-.22.27s-.3.06-.45.07h-1a2,2,0,0,1-.42-.07c-.16,0-.21-.13-.23-.27-.07-.48-.13-1-.2-1.44S8.08,3.72,8,3.17C8,3.08,8,3,8,2.88c-.27.1-.53.21-.79.29a2.78,2.78,0,0,0-1.34,1,.55.55,0,0,0-.13.41c0,.24,0,.49,0,.73l0,1c0,.58,0,1.16,0,1.74a1.37,1.37,0,0,1-.07.42c-.06.18-.14.35-.19.52s-.23.45-.15.71a3.3,3.3,0,0,0,.24.79c.35.62.75,1.21,1.13,1.81a1.63,1.63,0,0,1,.34.89A5.8,5.8,0,0,1,7,14.55a.46.46,0,0,0,.14.44l.45.48s.07.08.15,0a3.82,3.82,0,0,1,.46-.21.9.9,0,0,1,.32-.09h2.26l.12,0Z"/><path d="M8,10.36c-.4,0-.82,0-1.22-.1A2.3,2.3,0,0,1,6.2,10c-.21-.11-.4-.25-.61-.37s-.14-.13,0-.23A3.9,3.9,0,0,1,6,9.05a.28.28,0,0,1,.22,0c.41.12.81.28,1.22.39s.68.14,1,.2l.13,0c.09,0,.1.08,0,.16a3.15,3.15,0,0,1-.31.41.84.84,0,0,1-.27.13Z"/><path d="M11,10.35a.3.3,0,0,1-.25-.15c-.08-.12-.18-.23-.27-.35s-.05-.15.06-.18.35,0,.52-.08l1.34-.38c.18-.05.35-.13.53-.18a.22.22,0,0,1,.18,0,4.59,4.59,0,0,1,.44.33c.09.07.06.15,0,.2-.36.22-.72.43-1.09.63a.92.92,0,0,1-.37.09Z"/></svg>