<svg xmlns="http://www.w3.org/2000/svg" viewBox="0 0 512 512"><g id="Layer_2" data-name="Layer 2"><path d="M229.66,282.34c-.3-4.94-.3-8.44-.3-11.06,0-20.37,2.63-24.74,27.37-44.24,9.89-7.57,13.1-12.52,13.1-18.63,0-8.45-6.12-14-15.43-14-10.19,0-15.72,6.41-16.3,18H197.34c.88-36.68,22.42-57.63,58.51-57.63,34.64,0,58.81,21.54,58.81,53,0,18.63-7.28,31.73-24.46,44.25-14.26,10.48-16,12.81-16,21.54v8.73ZM276.52,333c0,14-10.48,24.16-24.45,24.16-14.26,0-24.45-10.18-24.45-24.45s10.19-24.45,24.74-24.45C266.33,308.25,276.52,318.73,276.52,333Z" style="fill:#fff"/></g></svg>