<?xml version="1.0" encoding="utf-8"?>
<!-- Generator: Adobe Illustrator 24.3.0, SVG Export Plug-In . SVG Version: 6.00 Build 0)  -->
<svg version="1.1" id="Layer_1" xmlns="http://www.w3.org/2000/svg" xmlns:xlink="http://www.w3.org/1999/xlink" x="0px" y="0px"
	 viewBox="0 0 512 512" style="enable-background:new 0 0 512 512;" xml:space="preserve">
<style type="text/css">
	.st0{fill:none;}
	.st1{fill:none;stroke:#EF4A50;stroke-width:34.8049;stroke-linecap:round;stroke-linejoin:round;}
</style>
<path class="st0" d="M0,0"/>
<path class="st1" d="M221.2,290.8L456.1,55.9 M343,47.2h121.8V169 M395.2,221.2v200.1c0,1.4-0.1,2.8-0.2,4.3
	c-0.1,1.4-0.3,2.8-0.6,4.2c-0.3,1.4-0.6,2.8-1,4.1c-0.4,1.4-0.9,2.7-1.4,4c-0.5,1.3-1.2,2.6-1.8,3.9s-1.4,2.5-2.2,3.7
	c-0.8,1.2-1.6,2.3-2.5,3.4c-0.9,1.1-1.9,2.2-2.9,3.2c-1,1-2.1,2-3.2,2.9c-1.1,0.9-2.2,1.8-3.4,2.5s-2.4,1.5-3.7,2.2
	c-1.3,0.7-2.5,1.3-3.9,1.8c-1.3,0.5-2.7,1-4,1.4c-1.4,0.4-2.7,0.8-4.1,1c-1.4,0.3-2.8,0.5-4.2,0.6s-2.8,0.2-4.3,0.2h-261
	c-1.4,0-2.8-0.1-4.3-0.2c-1.4-0.1-2.8-0.3-4.2-0.6c-1.4-0.3-2.8-0.6-4.1-1c-1.4-0.4-2.7-0.9-4-1.4c-1.3-0.5-2.6-1.2-3.9-1.8
	c-1.3-0.7-2.5-1.4-3.7-2.2c-1.2-0.8-2.3-1.6-3.4-2.5c-1.1-0.9-2.2-1.9-3.2-2.9c-1-1-2-2.1-2.9-3.2s-1.8-2.2-2.5-3.4
	c-0.8-1.2-1.5-2.4-2.2-3.7c-0.7-1.3-1.3-2.5-1.8-3.9c-0.5-1.3-1-2.7-1.4-4c-0.4-1.4-0.8-2.7-1-4.1c-0.3-1.4-0.5-2.8-0.6-4.2
	c-0.1-1.4-0.2-2.8-0.2-4.3v-261c0-1.4,0.1-2.8,0.2-4.3c0.1-1.4,0.3-2.8,0.6-4.2c0.3-1.4,0.6-2.8,1-4.1c0.4-1.4,0.9-2.7,1.4-4
	c0.5-1.3,1.2-2.6,1.8-3.9c0.7-1.3,1.4-2.5,2.2-3.7c0.8-1.2,1.6-2.3,2.5-3.4c0.9-1.1,1.9-2.2,2.9-3.2c1-1,2.1-2,3.2-2.9
	s2.2-1.8,3.4-2.5c1.2-0.8,2.4-1.5,3.7-2.2c1.3-0.7,2.5-1.3,3.9-1.8c1.3-0.5,2.7-1,4-1.4s2.7-0.8,4.1-1c1.4-0.3,2.8-0.5,4.2-0.6
	c1.4-0.1,2.8-0.2,4.3-0.2h182.2"/>
</svg>
