<?xml version="1.0" encoding="utf-8"?>
<!-- Generator: Adobe Illustrator 24.3.0, SVG Export Plug-In . SVG Version: 6.00 Build 0)  -->
<svg version="1.1" id="Layer_1" xmlns="http://www.w3.org/2000/svg" xmlns:xlink="http://www.w3.org/1999/xlink" x="0px" y="0px"
	 viewBox="0 0 254 54" style="enable-background:new 0 0 254 54;" xml:space="preserve">
<style type="text/css">
	.st0{fill:#784FFE;}
	.st1{fill-rule:evenodd;clip-rule:evenodd;fill:#FFFFFF;}
	.st2{fill:#FFFFFF;}
</style>
<path class="st0" d="M151.4,26.7c0-8.7-7-15.7-15.7-15.7S120,18,120,26.7s7,15.7,15.7,15.7S151.4,35.4,151.4,26.7z"/>
<path class="st1" d="M129.7,22.8l11.1-0.1l-2.7,4l6.3,0l-2.7,3.9l-11.2,0.1l2.7-4l-6.2,0L129.7,22.8z"/>
<path class="st2" d="M162.4,32.9V30l6.6-8.1h-6.4v-2.8h10.6v2.7l-6.8,8.3h6.9v2.9H162.4z"/>
<path class="st2" d="M180.8,28.7h-0.4c-0.4,0-0.7,0-1.1,0.1c-0.4,0-0.7,0.1-1,0.2c-0.3,0.1-0.5,0.2-0.7,0.4
	c-0.2,0.2-0.3,0.4-0.3,0.7c0,0.2,0,0.3,0.1,0.5c0.1,0.1,0.2,0.2,0.3,0.3c0.1,0.1,0.3,0.1,0.5,0.2c0.2,0,0.3,0,0.5,0
	c0.7,0,1.1-0.2,1.5-0.5c0.4-0.4,0.5-0.9,0.5-1.5V28.7z M175,24.5c0.6-0.5,1.2-1,2-1.2c0.8-0.3,1.6-0.4,2.3-0.4
	c0.8,0,1.5,0.1,2.1,0.3c0.6,0.2,1,0.5,1.4,0.9c0.4,0.4,0.6,1,0.8,1.6c0.2,0.6,0.3,1.4,0.3,2.3v4.9h-2.9v-1h-0.1
	c-0.2,0.4-0.6,0.7-1.1,0.9c-0.5,0.2-1,0.3-1.6,0.3c-0.4,0-0.8-0.1-1.2-0.2c-0.4-0.1-0.8-0.3-1.2-0.5c-0.3-0.2-0.6-0.5-0.8-0.9
	s-0.3-0.9-0.3-1.4c0-0.7,0.2-1.3,0.6-1.7c0.4-0.4,0.9-0.8,1.5-1c0.6-0.2,1.3-0.4,2-0.5c0.7-0.1,1.5-0.1,2.2-0.1v-0.2
	c0-0.5-0.2-0.8-0.5-1.1c-0.3-0.2-0.8-0.4-1.3-0.4c-0.5,0-0.9,0.1-1.3,0.3c-0.4,0.2-0.8,0.4-1.1,0.7L175,24.5z"/>
<path class="st2" d="M197,28c0,0.7-0.1,1.3-0.3,2c-0.2,0.6-0.5,1.2-0.9,1.7c-0.4,0.5-0.9,0.8-1.4,1.1c-0.6,0.3-1.2,0.4-2,0.4
	c-0.6,0-1.2-0.1-1.7-0.4c-0.5-0.2-1-0.6-1.3-1h0v5.8h-3.2V23.2h3.1v1.2h0.1c0.3-0.4,0.7-0.7,1.2-1c0.5-0.3,1.2-0.4,1.9-0.4
	c0.7,0,1.3,0.1,1.9,0.4c0.6,0.3,1.1,0.6,1.4,1.1c0.4,0.5,0.7,1,0.9,1.6C196.9,26.7,197,27.4,197,28z M193.9,28
	c0-0.3-0.1-0.6-0.2-0.9c-0.1-0.3-0.2-0.6-0.4-0.8c-0.2-0.2-0.4-0.4-0.7-0.6c-0.3-0.1-0.6-0.2-1-0.2c-0.4,0-0.7,0.1-1,0.2
	c-0.3,0.1-0.5,0.3-0.7,0.6c-0.2,0.2-0.4,0.5-0.5,0.8c-0.1,0.3-0.2,0.6-0.2,0.9c0,0.3,0.1,0.6,0.2,0.9c0.1,0.3,0.3,0.6,0.5,0.8
	c0.2,0.2,0.5,0.4,0.7,0.6c0.3,0.1,0.6,0.2,1,0.2c0.4,0,0.7-0.1,1-0.2c0.3-0.1,0.5-0.3,0.7-0.6c0.2-0.2,0.3-0.5,0.4-0.8
	C193.8,28.7,193.9,28.3,193.9,28z"/>
<path class="st2" d="M209.9,28c0,0.7-0.1,1.3-0.3,2c-0.2,0.6-0.5,1.2-0.9,1.7c-0.4,0.5-0.9,0.8-1.4,1.1c-0.6,0.3-1.2,0.4-2,0.4
	c-0.6,0-1.2-0.1-1.7-0.4c-0.5-0.2-1-0.6-1.3-1h0v5.8H199V23.2h3.1v1.2h0.1c0.3-0.4,0.7-0.7,1.2-1c0.5-0.3,1.2-0.4,1.9-0.4
	c0.7,0,1.3,0.1,1.9,0.4c0.6,0.3,1.1,0.6,1.4,1.1c0.4,0.5,0.7,1,0.9,1.6C209.8,26.7,209.9,27.4,209.9,28z M206.8,28
	c0-0.3-0.1-0.6-0.2-0.9c-0.1-0.3-0.2-0.6-0.4-0.8c-0.2-0.2-0.4-0.4-0.7-0.6c-0.3-0.1-0.6-0.2-1-0.2c-0.4,0-0.7,0.1-1,0.2
	c-0.3,0.1-0.5,0.3-0.7,0.6c-0.2,0.2-0.4,0.5-0.5,0.8c-0.1,0.3-0.2,0.6-0.2,0.9c0,0.3,0.1,0.6,0.2,0.9c0.1,0.3,0.3,0.6,0.5,0.8
	c0.2,0.2,0.5,0.4,0.7,0.6c0.3,0.1,0.6,0.2,1,0.2c0.4,0,0.7-0.1,1-0.2c0.3-0.1,0.5-0.3,0.7-0.6c0.2-0.2,0.3-0.5,0.4-0.8
	C206.7,28.7,206.8,28.3,206.8,28z"/>
<path class="st2" d="M218.6,27c0-0.5-0.2-0.9-0.5-1.3c-0.3-0.4-0.8-0.5-1.4-0.5c-0.3,0-0.6,0.1-0.9,0.2c-0.3,0.1-0.5,0.2-0.7,0.4
	c-0.2,0.2-0.4,0.4-0.5,0.6c-0.1,0.2-0.2,0.5-0.2,0.7H218.6z M221.6,28.2c0,0.1,0,0.3,0,0.4c0,0.1,0,0.3,0,0.4h-7.1
	c0,0.3,0.1,0.5,0.2,0.7c0.1,0.2,0.3,0.4,0.5,0.6c0.2,0.2,0.5,0.3,0.7,0.4c0.3,0.1,0.6,0.1,0.8,0.1c0.5,0,0.9-0.1,1.3-0.3
	c0.4-0.2,0.6-0.4,0.9-0.7l2.2,1.4c-0.5,0.7-1.1,1.2-1.8,1.5c-0.7,0.4-1.6,0.5-2.6,0.5c-0.7,0-1.4-0.1-2.1-0.3
	c-0.7-0.2-1.2-0.6-1.7-1c-0.5-0.4-0.9-1-1.2-1.6c-0.3-0.6-0.4-1.4-0.4-2.2c0-0.8,0.1-1.5,0.4-2.2c0.3-0.7,0.6-1.2,1.1-1.6
	c0.5-0.5,1-0.8,1.7-1.1c0.6-0.2,1.3-0.4,2.1-0.4c0.7,0,1.4,0.1,2,0.4c0.6,0.2,1.1,0.6,1.5,1c0.4,0.5,0.8,1,1,1.7
	C221.4,26.6,221.6,27.4,221.6,28.2z"/>
<path class="st2" d="M229.9,25.8c-0.1,0-0.3-0.1-0.4-0.1c-0.1,0-0.3,0-0.4,0c-0.4,0-0.8,0.1-1.1,0.2c-0.3,0.2-0.5,0.3-0.7,0.6
	c-0.2,0.2-0.3,0.5-0.4,0.7c-0.1,0.3-0.1,0.5-0.1,0.7v5h-3.2v-9.7h3.1v1.4h0c0.2-0.5,0.6-0.9,1.1-1.2c0.5-0.3,1-0.5,1.6-0.5
	c0.1,0,0.3,0,0.4,0c0.1,0,0.2,0,0.3,0.1L229.9,25.8z"/>
<path class="st2" d="M22.4,20.7h3.7c0.7,0,1.2,0.1,1.8,0.2c0.5,0.1,1,0.3,1.3,0.6c0.4,0.3,0.7,0.6,0.9,1s0.3,0.9,0.3,1.5
	c0,0.6-0.1,1.2-0.4,1.6c-0.2,0.4-0.6,0.8-1,1c-0.4,0.3-0.9,0.4-1.4,0.6s-1.1,0.2-1.7,0.2h-1.6V32h-2V20.7z M25.8,25.6
	c0.3,0,0.6,0,0.9-0.1c0.3-0.1,0.6-0.1,0.8-0.3c0.2-0.1,0.4-0.3,0.6-0.5c0.1-0.2,0.2-0.5,0.2-0.8c0-0.3-0.1-0.6-0.2-0.8
	c-0.1-0.2-0.3-0.4-0.6-0.5c-0.2-0.1-0.5-0.2-0.8-0.2c-0.3,0-0.6-0.1-0.9-0.1h-1.5v3.2H25.8z M30.5,28.1c0-0.6,0.1-1.2,0.3-1.6
	c0.2-0.5,0.5-0.9,0.9-1.3c0.4-0.4,0.8-0.6,1.3-0.8c0.5-0.2,1.1-0.3,1.6-0.3s1.1,0.1,1.6,0.3c0.5,0.2,1,0.5,1.3,0.8
	c0.4,0.4,0.7,0.8,0.9,1.3c0.2,0.5,0.3,1,0.3,1.6s-0.1,1.2-0.3,1.7c-0.2,0.5-0.5,0.9-0.9,1.3c-0.4,0.4-0.8,0.6-1.3,0.8
	s-1.1,0.3-1.6,0.3s-1.1-0.1-1.6-0.3s-1-0.5-1.3-0.8c-0.4-0.4-0.7-0.8-0.9-1.3C30.6,29.3,30.5,28.7,30.5,28.1z M32.5,28.1
	c0,0.3,0,0.6,0.1,0.9c0.1,0.3,0.2,0.6,0.4,0.8c0.2,0.2,0.4,0.4,0.7,0.6c0.3,0.1,0.6,0.2,1,0.2s0.7-0.1,1-0.2
	c0.3-0.1,0.5-0.3,0.7-0.6c0.2-0.2,0.3-0.5,0.4-0.8c0.1-0.3,0.1-0.6,0.1-0.9s0-0.6-0.1-0.9c-0.1-0.3-0.2-0.6-0.4-0.8
	c-0.2-0.2-0.4-0.4-0.7-0.6c-0.3-0.1-0.6-0.2-1-0.2s-0.7,0.1-1,0.2c-0.3,0.1-0.5,0.3-0.7,0.6c-0.2,0.2-0.3,0.5-0.4,0.8
	C32.5,27.5,32.5,27.8,32.5,28.1z M39.7,24.3h2.1l1.6,5.5h0l1.6-5.5h2l1.7,5.5h0l1.6-5.5h2L49.7,32h-2L46,26.6h0L44.3,32h-2
	L39.7,24.3z M59,27.4c0-0.2,0-0.5-0.1-0.7c-0.1-0.2-0.2-0.4-0.3-0.6c-0.1-0.2-0.3-0.3-0.6-0.4c-0.2-0.1-0.5-0.2-0.8-0.2
	c-0.6,0-1.1,0.2-1.5,0.5c-0.4,0.3-0.6,0.8-0.7,1.3H59z M60.9,28.3c0,0.1,0,0.2,0,0.3c0,0.1,0,0.2,0,0.3h-5.8c0,0.3,0.1,0.5,0.2,0.8
	c0.1,0.2,0.3,0.4,0.5,0.6c0.2,0.2,0.4,0.3,0.7,0.4c0.3,0.1,0.5,0.1,0.8,0.1c0.5,0,0.9-0.1,1.2-0.3c0.3-0.2,0.6-0.4,0.8-0.7l1.3,1
	c-0.8,1-1.9,1.5-3.3,1.5c-0.6,0-1.1-0.1-1.6-0.3c-0.5-0.2-0.9-0.5-1.3-0.8c-0.4-0.3-0.7-0.8-0.9-1.2c-0.2-0.5-0.3-1.1-0.3-1.7
	c0-0.6,0.1-1.2,0.3-1.7c0.2-0.5,0.5-0.9,0.9-1.3c0.4-0.4,0.8-0.6,1.3-0.8c0.5-0.2,1-0.3,1.6-0.3c0.5,0,1,0.1,1.5,0.3
	c0.5,0.2,0.9,0.4,1.2,0.8c0.3,0.3,0.6,0.8,0.8,1.3C60.8,27,60.9,27.6,60.9,28.3z M62.8,24.3h1.8v1.3h0c0.2-0.4,0.5-0.8,0.9-1.1
	c0.4-0.3,0.8-0.4,1.3-0.4c0.1,0,0.2,0,0.2,0c0.1,0,0.2,0,0.2,0v1.8c-0.1,0-0.2-0.1-0.3-0.1c-0.1,0-0.2,0-0.3,0
	c-0.4,0-0.8,0.1-1.1,0.2c-0.3,0.2-0.5,0.4-0.6,0.6c-0.1,0.2-0.3,0.5-0.3,0.7c-0.1,0.2-0.1,0.4-0.1,0.6V32h-1.9V24.3z M73.8,27.4
	c0-0.2,0-0.5-0.1-0.7c-0.1-0.2-0.2-0.4-0.3-0.6s-0.3-0.3-0.6-0.4c-0.2-0.1-0.5-0.2-0.8-0.2c-0.6,0-1.1,0.2-1.5,0.5
	c-0.4,0.3-0.6,0.8-0.7,1.3H73.8z M75.7,28.3c0,0.1,0,0.2,0,0.3c0,0.1,0,0.2,0,0.3h-5.8c0,0.3,0.1,0.5,0.2,0.8
	c0.1,0.2,0.3,0.4,0.5,0.6c0.2,0.2,0.4,0.3,0.7,0.4c0.3,0.1,0.5,0.1,0.8,0.1c0.5,0,0.9-0.1,1.2-0.3c0.3-0.2,0.6-0.4,0.8-0.7l1.3,1
	c-0.8,1-1.9,1.5-3.3,1.5c-0.6,0-1.1-0.1-1.6-0.3c-0.5-0.2-0.9-0.5-1.3-0.8c-0.4-0.3-0.7-0.8-0.9-1.2c-0.2-0.5-0.3-1.1-0.3-1.7
	c0-0.6,0.1-1.2,0.3-1.7c0.2-0.5,0.5-0.9,0.9-1.3c0.4-0.4,0.8-0.6,1.3-0.8c0.5-0.2,1-0.3,1.6-0.3c0.5,0,1,0.1,1.5,0.3
	c0.5,0.2,0.9,0.4,1.2,0.8c0.3,0.3,0.6,0.8,0.8,1.3C75.6,27,75.7,27.6,75.7,28.3z M85.3,32h-1.8v-1.2h0c-0.3,0.4-0.6,0.8-1.1,1
	c-0.5,0.2-1,0.4-1.5,0.4c-0.6,0-1.1-0.1-1.6-0.3c-0.5-0.2-0.9-0.5-1.2-0.9c-0.3-0.4-0.6-0.8-0.8-1.3c-0.2-0.5-0.3-1-0.3-1.6
	s0.1-1.1,0.3-1.6c0.2-0.5,0.4-0.9,0.8-1.3c0.3-0.4,0.7-0.6,1.2-0.8c0.5-0.2,1-0.3,1.5-0.3c0.4,0,0.7,0,0.9,0.1
	c0.3,0.1,0.5,0.2,0.7,0.3c0.2,0.1,0.4,0.2,0.5,0.4s0.3,0.3,0.4,0.4h0v-5.4h1.9V32z M79,28.1c0,0.3,0,0.6,0.1,0.9
	c0.1,0.3,0.2,0.6,0.4,0.8c0.2,0.2,0.4,0.4,0.7,0.6s0.6,0.2,1,0.2c0.4,0,0.7-0.1,0.9-0.2c0.3-0.1,0.5-0.3,0.7-0.6
	c0.2-0.2,0.4-0.5,0.4-0.8c0.1-0.3,0.2-0.6,0.2-0.9s-0.1-0.6-0.2-0.9c-0.1-0.3-0.2-0.6-0.4-0.8c-0.2-0.2-0.4-0.4-0.7-0.6
	c-0.3-0.1-0.6-0.2-0.9-0.2c-0.4,0-0.7,0.1-1,0.2c-0.3,0.1-0.5,0.3-0.7,0.6c-0.2,0.2-0.3,0.5-0.4,0.8C79.1,27.5,79,27.8,79,28.1z
	 M93.6,19.9v5.4h0c0.1-0.1,0.2-0.3,0.4-0.4c0.1-0.1,0.3-0.3,0.5-0.4c0.2-0.1,0.5-0.2,0.7-0.3c0.3-0.1,0.6-0.1,0.9-0.1
	c0.5,0,1,0.1,1.5,0.3c0.5,0.2,0.9,0.5,1.2,0.8c0.3,0.4,0.6,0.8,0.8,1.3c0.2,0.5,0.3,1,0.3,1.6s-0.1,1.1-0.3,1.6
	c-0.2,0.5-0.4,0.9-0.8,1.3c-0.3,0.4-0.7,0.7-1.2,0.9c-0.5,0.2-1,0.3-1.6,0.3c-0.5,0-1.1-0.1-1.5-0.4c-0.5-0.2-0.8-0.6-1.1-1h0V32
	h-1.8V19.9H93.6z M98,28.1c0-0.3,0-0.6-0.1-0.9c-0.1-0.3-0.2-0.6-0.4-0.8c-0.2-0.2-0.4-0.4-0.7-0.6c-0.3-0.1-0.6-0.2-1-0.2
	c-0.4,0-0.7,0.1-0.9,0.2c-0.3,0.1-0.5,0.3-0.7,0.6c-0.2,0.2-0.3,0.5-0.4,0.8c-0.1,0.3-0.1,0.6-0.1,0.9s0,0.6,0.1,0.9
	c0.1,0.3,0.3,0.5,0.4,0.8c0.2,0.2,0.4,0.4,0.7,0.6c0.3,0.1,0.6,0.2,0.9,0.2c0.4,0,0.7-0.1,1-0.2c0.3-0.1,0.5-0.3,0.7-0.6
	c0.2-0.2,0.3-0.5,0.4-0.8C98,28.7,98,28.4,98,28.1z M100.7,24.3h2.1l2.1,5.6h0l1.9-5.6h2l-3.6,9.3c-0.1,0.4-0.3,0.7-0.4,0.9
	c-0.2,0.3-0.4,0.5-0.6,0.7c-0.2,0.2-0.5,0.3-0.8,0.4c-0.3,0.1-0.7,0.1-1.1,0.1c-0.2,0-0.3,0-0.5,0c-0.2,0-0.3,0-0.5-0.1l0.2-1.7
	c0.1,0,0.2,0.1,0.4,0.1c0.1,0,0.2,0,0.4,0c0.2,0,0.4,0,0.5-0.1c0.1,0,0.3-0.1,0.4-0.2c0.1-0.1,0.2-0.2,0.3-0.4
	c0.1-0.1,0.2-0.3,0.2-0.5l0.4-1L100.7,24.3z"/>
</svg>
