<svg id="Layer_1" data-name="Layer 1" xmlns="http://www.w3.org/2000/svg" viewBox="0 0 102.04 278.79"><polygon points="82.39 37.92 78.41 41.9 77.92 48.36 67.98 69.23 29.72 79.66 8.35 94.57 9.84 103.02 28.23 112.46 59.03 113.45 56.55 119.41 28.23 116.43 8.85 105 5.37 96.56 7.36 90.1 30.22 77.67 66.49 63.26 76.43 48.36 77.42 40.41 82.39 37.92" style="fill:#ec474e"/><polygon points="23.26 97.05 27.73 95.06 45.62 93.57 70.46 94.57 42.64 89.6 25.74 94.57 23.26 97.05" style="fill:#ec474e"/><polygon points="47.11 88.61 50.09 89.1 61.02 82.64 74.94 80.66 59.53 79.17 47.11 88.61" style="fill:#ec474e"/><polygon points="83.88 76.18 81.89 76.18 76.92 80.66 74.44 92.08 59.53 117.42 56.05 133.32 42.14 164.13 42.14 174.57 46.61 184.5 66.98 194.94 48.1 180.53 46.61 162.14 54.07 141.28 59.53 134.81 61.52 117.92 78.41 94.07 78.91 81.15 82.39 76.68 83.88 76.18" style="fill:#ec474e"/><polygon points="84.87 91.09 77.42 101.03 74.94 117.92 79.41 102.02 84.87 91.09" style="fill:#ec474e"/><polygon points="71.46 153.7 71.46 150.72 64.5 159.16 71.46 153.7" style="fill:#ec474e"/><polygon points="72.45 124.88 64.5 148.23 58.04 160.16 58.04 172.58 60.03 160.16 67.48 148.73 72.45 124.88" style="fill:#ec474e"/><polygon points="76.43 197.42 76.43 191.46 72.45 187.98 73.94 194.94 76.43 197.42" style="fill:#ec474e"/><polygon points="81.39 194.44 71.46 207.36 72.45 225.75 82.89 235.68 90.34 235.68 85.87 233.69 77.92 224.25 75.43 206.37 81.39 194.44" style="fill:#ec474e"/><line x1="85.37" y1="79.16" x2="85.37" y2="0.16" style="fill:none;stroke:#fff;stroke-miterlimit:10;stroke-width:0.9937654882693252px"/><path d="M95.8,210.34c-2,0-7,4.47-7,6,0,2,8.94,9.94,10.43,8.95s2-8.95,1-10.93S97.29,210.34,95.8,210.34Z" style="fill:#fff"/><path d="M77.94,210.34c2,0,7,4.47,7,6,0,2-8.94,9.94-10.43,8.95s-2-8.95-1-10.93S76.45,210.34,77.94,210.34Z" style="fill:#fff"/></svg>