<svg id="Layer_1" data-name="Layer 1" xmlns="http://www.w3.org/2000/svg" xmlns:xlink="http://www.w3.org/1999/xlink" viewBox="0 0 109 174.45"><defs><radialGradient id="radial-gradient" cx="87.05" cy="98.5" r="21.95" gradientUnits="userSpaceOnUse"><stop offset="0" stop-color="#ec474e" stop-opacity="0.7"/><stop offset="1" stop-color="#ec474e" stop-opacity="0"/></radialGradient></defs><polygon points="82.86 10.94 81.87 5.52 79.4 5.52 69.05 9.96 69.54 29.69 67.57 33.63 67.57 35.61 72.99 47.94 79.9 53.86 80.39 52.87 83.35 52.87 83.35 51.88 79.9 51.39 71.51 12.92 80.88 7.49 81.87 10.94 82.86 10.94" style="fill:#ec474e"/><polygon points="75.95 52.38 75.46 56.32 77.92 59.77 85.32 59.28 86.8 57.8 86.8 59.77 77.43 62.24 73.48 57.31 73.48 54.35 75.95 52.38" style="fill:#ec474e"/><polygon points="67.07 56.82 67.02 56.63 66.09 53.36 43.4 66.68 41.42 63.72 65.59 51.88 67.57 51.88 67.07 56.82" style="fill:#ec474e"/><polygon points="86.8 82.47 85.32 76.05 68.55 69.64 45.37 95.78 50.3 104.17 44.38 116.99 48.82 139.68 57.21 144.62 71.02 128.34 85.82 124.39 87.3 118.47 86.8 126.36 71.51 130.31 59.18 148.56 45.37 143.13 41.42 115.02 48.33 104.17 39.94 92.82 68.55 65.69 87.3 76.05 86.8 82.47" style="fill:#ec474e"/><polygon points="43.89 72.6 37.97 64.71 21.2 65.69 10.84 80 11.34 104.17 15.28 107.62 12.32 103.18 13.8 80 23.17 69.15 38.96 68.16 43.4 73.09 43.89 72.6" style="fill:#ec474e"/><polygon points="27.12 103.18 18.24 114.53 13.8 143.13 17.25 151.52 11.83 144.12 16.27 111.57 27.12 103.18" style="fill:#ec474e"/><polygon points="6.4 175.2 7.39 158.92 11.83 150.53 4.43 158.43 3.44 175.2 6.4 175.2" style="fill:#ec474e"/><polygon points="29.09 153 35.01 145.11 34.52 135.74 38.96 130.31 38.96 124.39 41.42 130.8 37.48 137.22 37.48 146.59 29.09 153" style="fill:#ec474e"/><polygon points="29.09 175.2 34.02 158.43 33.04 153.99 36 151.52 36.49 159.91 31.07 175.2 29.09 175.2" style="fill:#ec474e"/><polygon points="49.32 175.2 49.32 148.07 50.8 148.07 54.25 175.2 49.32 175.2" style="fill:#ec474e"/><polygon points="68.55 175.2 62.63 148.56 63.62 147.57 72.99 175.2 68.55 175.2" style="fill:#ec474e"/><circle cx="87.05" cy="98.5" r="10.11" style="fill:#fff"/><path d="M83.18,37.25l-.65.66a2.25,2.25,0,0,1-1.59.66H77.55a4.17,4.17,0,0,1-2.79-1.07l-2.49-2.21a1.54,1.54,0,0,1-.44-1.63l0-.1a.64.64,0,0,1,.59-.42h3.83a5.2,5.2,0,0,1,1.3.16l2.66.66a3,3,0,0,1,1.16.59L83.13,36A.84.84,0,0,1,83.18,37.25Z" style="fill:#fff"/><path d="M90.75,37.25l.65.66a2.28,2.28,0,0,0,1.59.66h3.39a4.2,4.2,0,0,0,2.8-1.07l2.48-2.21a1.54,1.54,0,0,0,.44-1.63l0-.1a.63.63,0,0,0-.59-.42H97.65a5.26,5.26,0,0,0-1.3.16L93.7,34a3,3,0,0,0-1.17.59L90.8,36A.84.84,0,0,0,90.75,37.25Z" style="fill:#fff"/><path d="M87.05,76.55a22,22,0,1,0,22,22A21.95,21.95,0,0,0,87.05,76.55Zm0,32.06A10.12,10.12,0,1,1,97.16,98.5,10.11,10.11,0,0,1,87.05,108.61Z" style="fill:url(#radial-gradient)"/><circle cx="87.05" cy="98.5" r="10.11" style="fill:#ec474e;opacity:0.7000000000000001"/></svg>