<svg id="Layer_1" data-name="Layer 1" xmlns="http://www.w3.org/2000/svg" viewBox="0 0 40 40"><g id="Group_266" data-name="Group 266"><path id="Rectangle_111" data-name="Rectangle 111" d="M30.38,8.21h0a15,15,0,0,1,0,21.21h0a15,15,0,0,1-21.21,0h0a15,15,0,0,1,0-21.21h0A15,15,0,0,1,30.38,8.21Z" style="fill:#fff"/><path id="add" d="M32.73,7.27a18,18,0,1,0,0,25.46A18,18,0,0,0,32.73,7.27ZM25.09,27.64,20,22.55l-5.09,5.09-2.55-2.55L17.45,20l-5.09-5.09,2.55-2.55L20,17.45l5.09-5.09,2.55,2.55L22.55,20l5.09,5.09Z" style="fill:#ed2635"/></g></svg>