<svg id="Layer_1" data-name="Layer 1" xmlns="http://www.w3.org/2000/svg" viewBox="0 0 19.06 18.12"><path d="M10.84,6.47s.5-.25-1.31-.25H9.37l-.17,0L9,6.26l-.15,0-.16,0-.16,0-.15,0-.15.06-.15.07A.61.61,0,0,0,8,6.61l-.14.08-.14.09-.13.09L7.44,7l-.12.1-.12.11-.11.12L7,7.42a.64.64,0,0,1-.1.13l-.09.13-.09.14L6.63,8s0,.1-.08.14l-.06.15-.06.15a.75.75,0,0,0,0,.16.83.83,0,0,0,0,.15.94.94,0,0,0,0,.16l0,.16c0,.05,0,.11,0,.16s0,.11,0,.16v.32c0,.06,0,.11,0,.16s0,.11,0,.16l0,.16a.75.75,0,0,0,0,.16.94.94,0,0,0,0,.16.88.88,0,0,0,0,.15l.06.15.06.15c0,.05,0,.1.08.14l.07.14.09.14.09.13.1.13.11.12.11.12.12.11.12.11.13.1.13.09.14.08.14.08.14.08.15.06.15.06.15.05.16,0,.16,0,.15,0,.16,0h.65l.16,0,.16,0,.16,0,.15,0,.16-.05.15-.06.14-.06.15-.08.14-.08.14-.08.13-.09.13-.1.12-.11a1.14,1.14,0,0,0,.11-.11l.12-.12.1-.12a.64.64,0,0,0,.1-.13l.09-.13.09-.14s.05-.09.08-.14a.61.61,0,0,0,.07-.14,1,1,0,0,0,.07-.15l.06-.15a.88.88,0,0,1,0-.15c0-.05,0-.11,0-.16a1.24,1.24,0,0,1,0-.16c0-.05,0-.1,0-.16a.78.78,0,0,0,0-.16.81.81,0,0,0,0-.16.81.81,0,0,0,0-.16" style="fill:none;stroke:#dd5656;stroke-miterlimit:10"/><polyline points="9.53 4.66 11.17 6.3 9.53 7.95" style="fill:none;stroke:#dd5656;stroke-miterlimit:10"/><g id="Group_175" data-name="Group 175"><g id="close-outline"><path id="Path_72" data-name="Path 72" d="M9.53.87a8.19,8.19,0,1,0,8.19,8.19h0A8.14,8.14,0,0,0,9.63.87Zm0,15.21a7,7,0,1,1,7-7h0A7,7,0,0,1,9.53,16.08Z" style="fill:#283141"/></g></g></svg>