<?xml version="1.0" encoding="utf-8"?>
<!-- Generator: Adobe Illustrator 24.3.0, SVG Export Plug-In . SVG Version: 6.00 Build 0)  -->
<svg version="1.1" id="Layer_1" xmlns="http://www.w3.org/2000/svg" xmlns:xlink="http://www.w3.org/1999/xlink" x="0px" y="0px"
	 viewBox="0 0 512 512" style="enable-background:new 0 0 512 512;" xml:space="preserve">
<style type="text/css">
	.st0{display:none;fill:none;}
	.st1{fill:#FFFFFF;}
</style>
<path class="st0" d="M0,0"/>
<path class="st1" d="M456.5,347.1l-33.3-19.2c6.1-6.2,12.9-11.5,20.5-15.7c0.6-0.3,1.2-0.7,1.8-1.1c0.6-0.4,1.1-0.8,1.7-1.3
	c0.5-0.5,1-0.9,1.5-1.4c0.5-0.5,0.9-1,1.4-1.6c0.4-0.6,0.8-1.1,1.2-1.7c0.4-0.6,0.7-1.2,1-1.8c0.3-0.6,0.6-1.3,0.9-1.9
	c0.3-0.7,0.5-1.3,0.7-2c0.2-0.7,0.3-1.4,0.5-2c0.1-0.7,0.2-1.4,0.3-2.1c0.1-0.7,0.1-1.4,0.1-2.1c0-0.7-0.1-1.4-0.1-2.1
	c-0.1-0.7-0.2-1.4-0.3-2.1c-0.1-0.7-0.3-1.4-0.5-2c-0.2-0.7-0.5-1.3-0.7-2c-0.3-0.6-0.6-1.3-0.9-1.9c-0.3-0.6-0.7-1.2-1.1-1.8
	c-0.4-0.6-0.8-1.1-1.3-1.7c-0.5-0.5-0.9-1.1-1.4-1.5c-0.5-0.5-1-1-1.6-1.4c-0.5-0.4-1.1-0.9-1.7-1.2c-0.6-0.4-1.2-0.7-1.8-1.1
	c-0.6-0.3-1.3-0.6-1.9-0.9c-0.7-0.3-1.3-0.5-2-0.7c-0.7-0.2-1.4-0.4-2-0.5c-0.7-0.1-1.4-0.2-2.1-0.3c-0.7-0.1-1.4-0.1-2.1-0.1
	c-0.7,0-1.4,0-2.1,0.1c-0.7,0.1-1.4,0.2-2.1,0.3c-0.7,0.1-1.4,0.3-2,0.5c-0.7,0.2-1.3,0.4-2,0.7c-0.6,0.3-1.3,0.6-1.9,0.9
	c-7.2,4-14,8.6-20.4,13.9c-6.4,5.3-12.1,11.1-17.4,17.5L298.8,256l86.3-49.8c5.2,6.4,11,12.2,17.4,17.5c6.4,5.3,13.1,9.9,20.4,13.9
	c0.6,0.3,1.3,0.7,1.9,1c0.6,0.3,1.3,0.5,2,0.8c0.7,0.2,1.4,0.4,2.1,0.6c0.7,0.2,1.4,0.3,2.1,0.4c0.7,0.1,1.4,0.1,2.1,0.1
	c0.7,0,1.4,0,2.1-0.1c0.7-0.1,1.4-0.1,2.1-0.3c0.7-0.1,1.4-0.3,2.1-0.5c0.7-0.2,1.4-0.4,2-0.7c0.7-0.3,1.3-0.6,1.9-0.9
	c0.6-0.3,1.2-0.7,1.8-1.1c0.6-0.4,1.2-0.8,1.7-1.2c0.6-0.4,1.1-0.9,1.6-1.4c0.5-0.5,1-1,1.5-1.6c0.5-0.5,0.9-1.1,1.3-1.7
	c0.4-0.6,0.8-1.2,1.1-1.8c0.3-0.6,0.7-1.3,0.9-1.9c0.3-0.7,0.5-1.3,0.7-2c0.2-0.7,0.4-1.4,0.5-2.1c0.1-0.7,0.3-1.4,0.3-2.1
	c0.1-0.7,0.1-1.4,0.1-2.1c0-0.7,0-1.4-0.1-2.1c-0.1-0.7-0.2-1.4-0.3-2.1c-0.1-0.7-0.3-1.4-0.5-2.1c-0.2-0.7-0.4-1.4-0.7-2
	c-0.3-0.7-0.6-1.3-0.9-1.9c-0.3-0.6-0.7-1.2-1.1-1.8c-0.4-0.6-0.8-1.2-1.3-1.7c-0.4-0.6-0.9-1.1-1.4-1.6c-0.5-0.5-1-1-1.6-1.4
	c-0.5-0.5-1.1-0.9-1.7-1.3c-0.6-0.4-1.2-0.8-1.8-1.1c-7.6-4.2-14.5-9.4-20.5-15.7l33.3-19.2c0.6-0.3,1.3-0.7,1.9-1.1
	c0.6-0.4,1.2-0.8,1.7-1.3c0.6-0.5,1.1-0.9,1.6-1.5c0.5-0.5,1-1,1.4-1.6c0.5-0.6,0.9-1.1,1.3-1.7c0.4-0.6,0.8-1.2,1.1-1.9
	c0.3-0.6,0.6-1.3,0.9-2c0.3-0.7,0.5-1.4,0.7-2c0.2-0.7,0.4-1.4,0.5-2.1c0.1-0.7,0.2-1.4,0.3-2.1c0.1-0.7,0.1-1.4,0.1-2.2
	c0-0.7-0.1-1.4-0.2-2.2c-0.1-0.7-0.2-1.4-0.4-2.1c-0.2-0.7-0.4-1.4-0.6-2.1c-0.2-0.7-0.5-1.4-0.8-2c-0.3-0.7-0.6-1.3-1-1.9
	c-0.4-0.6-0.8-1.2-1.2-1.8s-0.9-1.1-1.3-1.7c-0.5-0.5-1-1.1-1.5-1.5c-0.5-0.5-1.1-1-1.7-1.4c-0.6-0.4-1.2-0.8-1.8-1.2
	c-0.6-0.4-1.2-0.7-1.9-1c-0.6-0.3-1.3-0.6-2-0.8c-0.7-0.2-1.4-0.5-2.1-0.6c-0.7-0.2-1.4-0.3-2.1-0.4c-0.7-0.1-1.4-0.2-2.1-0.2
	c-0.7,0-1.4,0-2.2,0c-0.7,0-1.4,0.1-2.1,0.2c-0.7,0.1-1.4,0.3-2.1,0.4c-0.7,0.2-1.4,0.4-2.1,0.6c-0.7,0.3-1.3,0.5-2,0.9
	s-1.3,0.7-1.9,1l-33.3,19.2c-2.4-8.4-3.5-16.9-3.4-25.6c0-0.7,0-1.4-0.1-2.1c-0.1-0.7-0.1-1.4-0.3-2.1c-0.1-0.7-0.3-1.4-0.5-2.1
	c-0.2-0.7-0.4-1.4-0.7-2c-0.3-0.7-0.5-1.3-0.9-1.9c-0.3-0.6-0.7-1.2-1.1-1.8c-0.4-0.6-0.8-1.2-1.2-1.7c-0.4-0.6-0.9-1.1-1.4-1.6
	c-0.5-0.5-1-1-1.5-1.5c-0.5-0.5-1.1-0.9-1.7-1.3c-0.6-0.4-1.2-0.8-1.8-1.1c-0.6-0.3-1.2-0.7-1.9-0.9c-0.6-0.3-1.3-0.5-2-0.8
	c-0.7-0.2-1.4-0.4-2-0.6c-0.7-0.2-1.4-0.3-2.1-0.4c-0.7-0.1-1.4-0.1-2.1-0.1h-0.4c-0.7,0-1.4,0-2.1,0.1c-0.7,0.1-1.4,0.2-2.1,0.3
	c-0.7,0.1-1.4,0.3-2,0.5c-0.7,0.2-1.3,0.4-2,0.7c-0.6,0.3-1.3,0.6-1.9,0.9c-0.6,0.3-1.2,0.7-1.8,1.1c-0.6,0.4-1.1,0.8-1.7,1.2
	c-0.5,0.4-1.1,0.9-1.6,1.4c-0.5,0.5-1,1-1.4,1.5c-0.4,0.5-0.9,1.1-1.3,1.7c-0.4,0.6-0.8,1.2-1.1,1.8s-0.6,1.2-0.9,1.9
	c-0.3,0.6-0.5,1.3-0.7,2c-0.2,0.7-0.4,1.3-0.5,2c-0.1,0.7-0.3,1.4-0.3,2.1s-0.1,1.4-0.1,2.1c-0.2,8.3,0.5,16.5,1.9,24.6
	c1.4,8.1,3.6,16.1,6.5,23.8l-86.3,49.9V119c8.2-1.3,16.1-3.4,23.9-6.3c7.8-2.9,15.2-6.4,22.3-10.7c0.6-0.4,1.2-0.8,1.8-1.2
	s1.1-0.9,1.6-1.3c0.5-0.5,1-1,1.5-1.5c0.5-0.5,0.9-1.1,1.3-1.6c0.4-0.6,0.8-1.2,1.2-1.8c0.4-0.6,0.7-1.2,1-1.9
	c0.3-0.6,0.6-1.3,0.8-2c0.2-0.7,0.4-1.3,0.6-2c0.2-0.7,0.3-1.4,0.4-2.1c0.1-0.7,0.2-1.4,0.2-2.1s0-1.4,0-2.1c0-0.7-0.1-1.4-0.2-2.1
	c-0.1-0.7-0.2-1.4-0.4-2.1c-0.2-0.7-0.4-1.4-0.6-2c-0.2-0.7-0.5-1.3-0.8-2c-0.3-0.6-0.6-1.3-1-1.9c-0.4-0.6-0.8-1.2-1.2-1.8
	s-0.9-1.1-1.3-1.6c-0.5-0.5-1-1-1.5-1.5c-0.5-0.5-1.1-0.9-1.6-1.3c-0.6-0.4-1.2-0.8-1.8-1.2s-1.2-0.7-1.9-1c-0.6-0.3-1.3-0.6-2-0.8
	c-0.7-0.2-1.3-0.4-2-0.6c-0.7-0.2-1.4-0.3-2.1-0.4c-0.7-0.1-1.4-0.2-2.1-0.2c-0.7,0-1.4,0-2.1,0c-0.7,0-1.4,0.1-2.1,0.2
	c-0.7,0.1-1.4,0.2-2.1,0.4c-0.7,0.2-1.4,0.4-2,0.6c-0.7,0.2-1.3,0.5-2,0.8c-0.6,0.3-1.3,0.6-1.9,1c-7.5,4.5-15.4,7.8-23.9,9.9V42.4
	c0-0.7,0-1.4-0.1-2.1c-0.1-0.7-0.2-1.4-0.3-2.1c-0.1-0.7-0.3-1.4-0.5-2.1c-0.2-0.7-0.4-1.3-0.7-2c-0.3-0.7-0.6-1.3-0.9-1.9
	c-0.3-0.6-0.7-1.2-1.1-1.8c-0.4-0.6-0.8-1.2-1.3-1.7c-0.4-0.5-0.9-1.1-1.4-1.6c-0.5-0.5-1-1-1.6-1.4c-0.5-0.4-1.1-0.9-1.7-1.3
	c-0.6-0.4-1.2-0.8-1.8-1.1c-0.6-0.3-1.3-0.6-1.9-0.9c-0.7-0.3-1.3-0.5-2-0.7c-0.7-0.2-1.4-0.4-2.1-0.5c-0.7-0.1-1.4-0.2-2.1-0.3
	c-0.7-0.1-1.4-0.1-2.1-0.1s-1.4,0-2.1,0.1c-0.7,0.1-1.4,0.2-2.1,0.3c-0.7,0.1-1.4,0.3-2.1,0.5c-0.7,0.2-1.3,0.4-2,0.7
	c-0.7,0.3-1.3,0.6-1.9,0.9c-0.6,0.3-1.2,0.7-1.8,1.1c-0.6,0.4-1.2,0.8-1.7,1.3c-0.5,0.4-1.1,0.9-1.6,1.4c-0.5,0.5-1,1-1.4,1.6
	c-0.4,0.5-0.9,1.1-1.3,1.7c-0.4,0.6-0.8,1.2-1.1,1.8c-0.3,0.6-0.6,1.3-0.9,1.9c-0.3,0.7-0.5,1.3-0.7,2c-0.2,0.7-0.4,1.4-0.5,2.1
	c-0.1,0.7-0.2,1.4-0.3,2.1c-0.1,0.7-0.1,1.4-0.1,2.1V75c-8.4-2.1-16.4-5.4-23.9-9.9c-0.6-0.4-1.2-0.7-1.9-1c-0.6-0.3-1.3-0.6-2-0.8
	c-0.7-0.2-1.3-0.4-2-0.6c-0.7-0.2-1.4-0.3-2.1-0.4c-0.7-0.1-1.4-0.2-2.1-0.2c-0.7,0-1.4,0-2.1,0c-0.7,0-1.4,0.1-2.1,0.2
	c-0.7,0.1-1.4,0.2-2.1,0.4s-1.4,0.4-2,0.6c-0.7,0.2-1.3,0.5-2,0.8c-0.6,0.3-1.3,0.6-1.9,1c-0.6,0.4-1.2,0.8-1.8,1.2
	c-0.6,0.4-1.1,0.9-1.6,1.3c-0.5,0.5-1,1-1.5,1.5c-0.5,0.5-0.9,1.1-1.3,1.6c-0.4,0.6-0.8,1.2-1.2,1.8c-0.4,0.6-0.7,1.2-1,1.9
	c-0.3,0.6-0.6,1.3-0.8,2c-0.2,0.7-0.4,1.3-0.6,2c-0.2,0.7-0.3,1.4-0.4,2.1c-0.1,0.7-0.2,1.4-0.2,2.1c0,0.7,0,1.4,0,2.1
	c0,0.7,0.1,1.4,0.2,2.1c0.1,0.7,0.2,1.4,0.4,2.1c0.2,0.7,0.4,1.4,0.6,2c0.2,0.7,0.5,1.3,0.8,2c0.3,0.6,0.6,1.3,1,1.9
	c0.4,0.6,0.8,1.2,1.2,1.8c0.4,0.6,0.9,1.1,1.3,1.6c0.5,0.5,1,1,1.5,1.5c0.5,0.5,1.1,0.9,1.6,1.3c0.6,0.4,1.2,0.8,1.8,1.2
	c7.1,4.3,14.5,7.8,22.3,10.7s15.7,5,23.9,6.3v99.6l-86.3-49.9c2.9-7.7,5.1-15.7,6.5-23.8c1.4-8.1,2-16.3,1.9-24.6
	c0-0.7-0.1-1.4-0.1-2.1c-0.1-0.7-0.2-1.4-0.3-2.1c-0.1-0.7-0.3-1.4-0.5-2c-0.2-0.7-0.5-1.3-0.7-2c-0.3-0.6-0.6-1.3-0.9-1.9
	c-0.3-0.6-0.7-1.2-1.1-1.8c-0.4-0.6-0.8-1.1-1.3-1.7c-0.4-0.5-0.9-1-1.4-1.5c-0.5-0.5-1-1-1.6-1.4c-0.5-0.4-1.1-0.8-1.7-1.2
	c-0.6-0.4-1.2-0.7-1.8-1.1c-0.6-0.3-1.2-0.6-1.9-0.9c-0.6-0.3-1.3-0.5-2-0.7c-0.7-0.2-1.3-0.4-2-0.5c-0.7-0.1-1.4-0.2-2.1-0.3
	c-0.7-0.1-1.4-0.1-2.1-0.1h-0.4c-0.7,0-1.4,0.1-2.1,0.1c-0.7,0.1-1.4,0.2-2.1,0.3s-1.4,0.3-2,0.6c-0.7,0.2-1.3,0.5-2,0.7
	c-0.6,0.3-1.3,0.6-1.9,0.9c-0.6,0.3-1.2,0.7-1.8,1.1c-0.6,0.4-1.1,0.8-1.7,1.3c-0.5,0.5-1.1,0.9-1.5,1.4c-0.5,0.5-1,1-1.4,1.6
	c-0.4,0.6-0.8,1.1-1.2,1.7c-0.4,0.6-0.7,1.2-1.1,1.8c-0.3,0.6-0.6,1.3-0.9,1.9c-0.3,0.7-0.5,1.3-0.7,2c-0.2,0.7-0.4,1.4-0.5,2.1
	c-0.1,0.7-0.2,1.4-0.3,2.1c-0.1,0.7-0.1,1.4-0.1,2.1c0.2,8.7-1,17.3-3.3,25.7l-33.3-19.2c-0.6-0.4-1.2-0.7-1.9-1
	c-0.6-0.3-1.3-0.6-2-0.8s-1.4-0.4-2-0.6c-0.7-0.2-1.4-0.3-2.1-0.4c-0.7-0.1-1.4-0.2-2.1-0.2c-0.7,0-1.4,0-2.1,0
	c-0.7,0-1.4,0.1-2.1,0.2c-0.7,0.1-1.4,0.3-2.1,0.4c-0.7,0.2-1.4,0.4-2,0.6c-0.7,0.2-1.3,0.5-2,0.8c-0.6,0.3-1.3,0.7-1.9,1
	c-0.6,0.4-1.2,0.8-1.8,1.2c-0.6,0.4-1.1,0.9-1.6,1.4c-0.5,0.5-1,1-1.5,1.5c-0.5,0.5-0.9,1.1-1.3,1.7c-0.4,0.6-0.8,1.2-1.2,1.8
	c-0.4,0.6-0.7,1.2-1,1.9c-0.3,0.6-0.6,1.3-0.8,2c-0.2,0.7-0.4,1.4-0.6,2.1c-0.2,0.7-0.3,1.4-0.4,2.1c-0.1,0.7-0.1,1.4-0.2,2.1
	c0,0.7,0,1.4,0,2.1c0.1,0.7,0.1,1.4,0.3,2.1c0.1,0.7,0.3,1.4,0.5,2.1c0.2,0.7,0.4,1.4,0.7,2c0.3,0.7,0.5,1.3,0.9,2
	c0.3,0.6,0.7,1.3,1.1,1.9c0.4,0.6,0.8,1.2,1.2,1.7c0.4,0.6,0.9,1.1,1.4,1.6c0.5,0.5,1,1,1.6,1.5c0.5,0.5,1.1,0.9,1.7,1.3
	c0.6,0.4,1.2,0.8,1.8,1.1l33.3,19.2c-6.1,6.2-12.9,11.5-20.5,15.7c-0.6,0.3-1.2,0.7-1.8,1.1c-0.6,0.4-1.2,0.8-1.7,1.3
	c-0.5,0.5-1.1,0.9-1.6,1.4c-0.5,0.5-1,1-1.4,1.6c-0.4,0.6-0.9,1.1-1.3,1.7c-0.4,0.6-0.7,1.2-1.1,1.8c-0.3,0.6-0.6,1.3-0.9,1.9
	c-0.3,0.7-0.5,1.3-0.7,2c-0.2,0.7-0.4,1.4-0.5,2.1c-0.1,0.7-0.2,1.4-0.3,2.1c-0.1,0.7-0.1,1.4-0.1,2.1c0,0.7,0.1,1.4,0.1,2.1
	c0.1,0.7,0.2,1.4,0.3,2.1c0.1,0.7,0.3,1.4,0.5,2.1c0.2,0.7,0.5,1.3,0.7,2c0.3,0.7,0.6,1.3,0.9,1.9c0.3,0.6,0.7,1.2,1.1,1.8
	c0.4,0.6,0.8,1.1,1.3,1.7c0.5,0.5,0.9,1.1,1.5,1.6c0.5,0.5,1,1,1.6,1.4c0.6,0.4,1.1,0.9,1.7,1.2c0.6,0.4,1.2,0.7,1.8,1.1
	c0.6,0.3,1.3,0.6,1.9,0.9c0.7,0.3,1.3,0.5,2,0.7c0.7,0.2,1.4,0.4,2.1,0.5c0.7,0.1,1.4,0.2,2.1,0.3s1.4,0.1,2.1,0.1
	c0.7,0,1.4-0.1,2.1-0.1c0.7-0.1,1.4-0.2,2.1-0.4s1.4-0.3,2.1-0.6c0.7-0.2,1.3-0.5,2-0.8s1.3-0.6,1.9-1c7.2-4,14-8.6,20.4-13.9
	c6.4-5.3,12.1-11.1,17.4-17.5l86.3,49.8l-86.3,49.8c-5.2-6.4-11-12.2-17.4-17.5c-6.4-5.3-13.1-9.9-20.4-13.9c-0.6-0.3-1.3-0.7-1.9-1
	c-0.6-0.3-1.3-0.5-2-0.8c-0.7-0.2-1.4-0.4-2.1-0.6c-0.7-0.2-1.4-0.3-2.1-0.4c-0.7-0.1-1.4-0.1-2.1-0.1c-0.7,0-1.4,0-2.1,0.1
	c-0.7,0.1-1.4,0.1-2.1,0.3s-1.4,0.3-2.1,0.5c-0.7,0.2-1.4,0.4-2,0.7c-0.7,0.3-1.3,0.6-1.9,0.9c-0.6,0.3-1.2,0.7-1.8,1.1
	c-0.6,0.4-1.2,0.8-1.7,1.2c-0.6,0.4-1.1,0.9-1.6,1.4c-0.5,0.5-1,1-1.5,1.6c-0.5,0.5-0.9,1.1-1.3,1.7c-0.4,0.6-0.8,1.2-1.1,1.8
	c-0.3,0.6-0.7,1.3-0.9,1.9c-0.3,0.7-0.5,1.3-0.7,2s-0.4,1.4-0.5,2.1c-0.1,0.7-0.3,1.4-0.3,2.1s-0.1,1.4-0.1,2.1c0,0.7,0,1.4,0.1,2.1
	c0.1,0.7,0.2,1.4,0.3,2.1c0.1,0.7,0.3,1.4,0.5,2.1c0.2,0.7,0.4,1.4,0.7,2c0.3,0.7,0.6,1.3,0.9,1.9c0.3,0.6,0.7,1.2,1.1,1.8
	c0.4,0.6,0.8,1.2,1.3,1.7c0.4,0.6,0.9,1.1,1.4,1.6c0.5,0.5,1,1,1.6,1.4c0.5,0.5,1.1,0.9,1.7,1.3s1.2,0.8,1.8,1.1
	c7.6,4.2,14.5,9.4,20.5,15.7l-33.3,19.3c-0.6,0.3-1.2,0.7-1.8,1.1c-0.6,0.4-1.1,0.8-1.7,1.3s-1.1,1-1.6,1.5c-0.5,0.5-1,1.1-1.4,1.6
	c-0.4,0.6-0.9,1.1-1.2,1.7c-0.4,0.6-0.7,1.2-1.1,1.9c-0.3,0.6-0.6,1.3-0.9,2c-0.3,0.7-0.5,1.3-0.7,2c-0.2,0.7-0.3,1.4-0.5,2.1
	c-0.1,0.7-0.2,1.4-0.3,2.1c-0.1,0.7-0.1,1.4,0,2.1c0,0.7,0.1,1.4,0.2,2.1c0.1,0.7,0.2,1.4,0.4,2.1c0.2,0.7,0.4,1.4,0.6,2.1
	c0.2,0.7,0.5,1.3,0.8,2c0.3,0.6,0.6,1.3,1,1.9c0.4,0.6,0.7,1.2,1.2,1.8c0.4,0.6,0.9,1.1,1.3,1.7s1,1,1.5,1.5
	c0.5,0.5,1.1,0.9,1.6,1.4c0.6,0.4,1.2,0.8,1.8,1.2c0.6,0.4,1.2,0.7,1.9,1c0.6,0.3,1.3,0.6,2,0.8s1.3,0.5,2,0.6
	c0.7,0.2,1.4,0.3,2.1,0.4c0.7,0.1,1.4,0.2,2.1,0.2c0.7,0,1.4,0,2.1,0c0.7,0,1.4-0.1,2.1-0.2c0.7-0.1,1.4-0.2,2.1-0.4
	c0.7-0.2,1.4-0.4,2-0.6s1.3-0.5,2-0.8c0.6-0.3,1.3-0.6,1.9-1l33.3-19.2c2.4,8.4,3.5,16.9,3.4,25.6c0,0.7,0,1.4,0.1,2.1
	c0.1,0.7,0.1,1.4,0.3,2.1s0.3,1.4,0.5,2.1c0.2,0.7,0.4,1.3,0.7,2c0.3,0.7,0.5,1.3,0.9,1.9c0.3,0.6,0.7,1.2,1.1,1.8
	c0.4,0.6,0.8,1.2,1.2,1.7c0.4,0.6,0.9,1.1,1.4,1.6c0.5,0.5,1,1,1.5,1.4c0.5,0.5,1.1,0.9,1.7,1.3c0.6,0.4,1.2,0.8,1.8,1.1
	c0.6,0.3,1.2,0.7,1.9,0.9c0.6,0.3,1.3,0.5,2,0.7c0.7,0.2,1.4,0.4,2,0.6s1.4,0.3,2.1,0.3c0.7,0.1,1.4,0.1,2.1,0.1h0.4
	c0.7,0,1.4,0,2.1-0.1s1.4-0.2,2.1-0.3c0.7-0.1,1.4-0.3,2-0.5c0.7-0.2,1.3-0.4,2-0.7c0.6-0.3,1.3-0.6,1.9-0.9
	c0.6-0.3,1.2-0.7,1.8-1.1c0.6-0.4,1.1-0.8,1.7-1.2c0.5-0.4,1.1-0.9,1.6-1.4c0.5-0.5,1-1,1.4-1.5c0.4-0.5,0.9-1.1,1.3-1.7
	c0.4-0.6,0.8-1.2,1.1-1.8c0.3-0.6,0.6-1.2,0.9-1.9c0.3-0.6,0.5-1.3,0.7-2c0.2-0.7,0.4-1.3,0.5-2c0.1-0.7,0.3-1.4,0.3-2.1
	c0.1-0.7,0.1-1.4,0.1-2.1c0.2-8.3-0.5-16.5-1.9-24.6c-1.4-8.1-3.6-16.1-6.5-23.8l86.3-49.9V393c-8.2,1.3-16.1,3.4-23.9,6.3
	s-15.2,6.4-22.3,10.7c-0.6,0.4-1.2,0.8-1.8,1.2c-0.6,0.4-1.1,0.9-1.6,1.3c-0.5,0.5-1,1-1.5,1.5c-0.5,0.5-0.9,1.1-1.3,1.6
	c-0.4,0.6-0.8,1.2-1.2,1.8c-0.4,0.6-0.7,1.2-1,1.9c-0.3,0.6-0.6,1.3-0.8,2c-0.2,0.7-0.4,1.3-0.6,2c-0.2,0.7-0.3,1.4-0.4,2.1
	c-0.1,0.7-0.2,1.4-0.2,2.1c0,0.7,0,1.4,0,2.1c0,0.7,0.1,1.4,0.2,2.1c0.1,0.7,0.2,1.4,0.4,2.1c0.2,0.7,0.4,1.4,0.6,2
	c0.2,0.7,0.5,1.3,0.8,2c0.3,0.6,0.6,1.3,1,1.9c0.4,0.6,0.8,1.2,1.2,1.8s0.9,1.1,1.3,1.6c0.5,0.5,1,1,1.5,1.5
	c0.5,0.5,1.1,0.9,1.6,1.3c0.6,0.4,1.2,0.8,1.8,1.2c0.6,0.4,1.2,0.7,1.9,1c0.6,0.3,1.3,0.6,2,0.8c0.7,0.2,1.3,0.4,2,0.6
	c0.7,0.2,1.4,0.3,2.1,0.4c0.7,0.1,1.4,0.2,2.1,0.2s1.4,0,2.1,0c0.7,0,1.4-0.1,2.1-0.2c0.7-0.1,1.4-0.2,2.1-0.4
	c0.7-0.2,1.4-0.4,2-0.6c0.7-0.2,1.3-0.5,2-0.8c0.6-0.3,1.3-0.6,1.9-1c7.5-4.5,15.4-7.8,23.9-9.9v32.6c0,0.7,0,1.4,0.1,2.1
	c0.1,0.7,0.2,1.4,0.3,2.1c0.1,0.7,0.3,1.4,0.5,2.1c0.2,0.7,0.4,1.3,0.7,2c0.3,0.7,0.6,1.3,0.9,1.9c0.3,0.6,0.7,1.2,1.1,1.8
	c0.4,0.6,0.8,1.2,1.3,1.7c0.4,0.5,0.9,1.1,1.4,1.6c0.5,0.5,1,1,1.6,1.4c0.5,0.4,1.1,0.9,1.7,1.3c0.6,0.4,1.2,0.8,1.8,1.1
	s1.3,0.6,1.9,0.9c0.7,0.3,1.3,0.5,2,0.7c0.7,0.2,1.4,0.4,2.1,0.5c0.7,0.1,1.4,0.2,2.1,0.3c0.7,0.1,1.4,0.1,2.1,0.1s1.4,0,2.1-0.1
	c0.7-0.1,1.4-0.2,2.1-0.3c0.7-0.1,1.4-0.3,2.1-0.5c0.7-0.2,1.3-0.4,2-0.7c0.7-0.3,1.3-0.6,1.9-0.9c0.6-0.3,1.2-0.7,1.8-1.1
	c0.6-0.4,1.2-0.8,1.7-1.3s1.1-0.9,1.6-1.4c0.5-0.5,1-1,1.4-1.6c0.4-0.5,0.9-1.1,1.3-1.7c0.4-0.6,0.8-1.2,1.1-1.8
	c0.3-0.6,0.6-1.3,0.9-1.9c0.3-0.7,0.5-1.3,0.7-2c0.2-0.7,0.4-1.4,0.5-2.1c0.1-0.7,0.2-1.4,0.3-2.1c0.1-0.7,0.1-1.4,0.1-2.1V437
	c8.4,2.1,16.4,5.4,23.9,9.9c0.6,0.4,1.2,0.7,1.9,1c0.6,0.3,1.3,0.6,2,0.8c0.7,0.2,1.3,0.4,2,0.6c0.7,0.2,1.4,0.3,2.1,0.4
	c0.7,0.1,1.4,0.2,2.1,0.2c0.7,0,1.4,0,2.1,0s1.4-0.1,2.1-0.2c0.7-0.1,1.4-0.2,2.1-0.4c0.7-0.2,1.4-0.4,2-0.6c0.7-0.2,1.3-0.5,2-0.8
	c0.6-0.3,1.3-0.6,1.9-1c0.6-0.4,1.2-0.8,1.8-1.2c0.6-0.4,1.1-0.9,1.6-1.3c0.5-0.5,1-1,1.5-1.5c0.5-0.5,0.9-1.1,1.3-1.6
	c0.4-0.6,0.8-1.2,1.2-1.8c0.4-0.6,0.7-1.2,1-1.9c0.3-0.6,0.6-1.3,0.8-2c0.2-0.7,0.4-1.3,0.6-2c0.2-0.7,0.3-1.4,0.4-2.1
	c0.1-0.7,0.2-1.4,0.2-2.1c0-0.7,0-1.4,0-2.1c0-0.7-0.1-1.4-0.2-2.1c-0.1-0.7-0.2-1.4-0.4-2.1c-0.2-0.7-0.4-1.4-0.6-2
	c-0.2-0.7-0.5-1.3-0.8-2c-0.3-0.6-0.6-1.3-1-1.9c-0.4-0.6-0.8-1.2-1.2-1.8c-0.4-0.6-0.9-1.1-1.3-1.6c-0.5-0.5-1-1-1.5-1.5
	c-0.5-0.5-1.1-0.9-1.6-1.3c-0.6-0.4-1.1-0.8-1.8-1.2c-7.1-4.3-14.5-7.8-22.3-10.7c-7.8-2.9-15.7-5-23.9-6.3v-99.6l86.3,49.9
	c-2.9,7.7-5.1,15.7-6.5,23.8c-1.4,8.1-2,16.3-1.9,24.6c0,0.7,0.1,1.4,0.1,2.1c0.1,0.7,0.2,1.4,0.3,2.1c0.1,0.7,0.3,1.4,0.5,2
	c0.2,0.7,0.5,1.3,0.7,2c0.3,0.6,0.6,1.3,0.9,1.9c0.3,0.6,0.7,1.2,1.1,1.8c0.4,0.6,0.8,1.1,1.3,1.7c0.4,0.5,0.9,1,1.4,1.5
	c0.5,0.5,1,1,1.6,1.4c0.5,0.4,1.1,0.8,1.7,1.2c0.6,0.4,1.2,0.7,1.8,1.1c0.6,0.3,1.2,0.6,1.9,0.9c0.6,0.3,1.3,0.5,2,0.7
	c0.7,0.2,1.3,0.4,2,0.5c0.7,0.1,1.4,0.2,2.1,0.3c0.7,0.1,1.4,0.1,2.1,0.1h0.4c0.7,0,1.4-0.1,2.1-0.1c0.7-0.1,1.4-0.2,2.1-0.3
	c0.7-0.2,1.4-0.3,2-0.6c0.7-0.2,1.3-0.5,2-0.7c0.6-0.3,1.3-0.6,1.9-0.9c0.6-0.3,1.2-0.7,1.8-1.1c0.6-0.4,1.1-0.8,1.7-1.3
	s1.1-0.9,1.5-1.4c0.5-0.5,1-1,1.4-1.6c0.4-0.6,0.8-1.1,1.2-1.7c0.4-0.6,0.7-1.2,1.1-1.8c0.3-0.6,0.6-1.3,0.9-1.9
	c0.3-0.7,0.5-1.3,0.7-2c0.2-0.7,0.4-1.4,0.5-2.1c0.1-0.7,0.2-1.4,0.3-2.1c0.1-0.7,0.1-1.4,0.1-2.1c-0.2-8.7,1-17.3,3.3-25.7
	l33.3,19.2c0.6,0.4,1.2,0.8,1.9,1.1c0.6,0.3,1.3,0.6,2,0.9c0.7,0.3,1.4,0.5,2.1,0.7c0.7,0.2,1.4,0.3,2.1,0.5
	c0.7,0.1,1.4,0.2,2.2,0.3c0.7,0,1.5,0.1,2.2,0c0.7,0,1.4-0.1,2.2-0.2s1.4-0.2,2.1-0.4c0.7-0.2,1.4-0.4,2.1-0.6
	c0.7-0.2,1.4-0.5,2-0.8c0.7-0.3,1.3-0.7,1.9-1c0.6-0.4,1.2-0.8,1.8-1.2c0.6-0.4,1.1-0.9,1.7-1.4c0.5-0.5,1-1,1.5-1.6
	c0.5-0.5,0.9-1.1,1.4-1.7c0.4-0.6,0.8-1.2,1.2-1.8c0.4-0.6,0.7-1.3,1-1.9c0.3-0.7,0.6-1.3,0.8-2c0.2-0.7,0.4-1.4,0.6-2.1
	c0.2-0.7,0.3-1.4,0.4-2.1c0.1-0.7,0.1-1.4,0.2-2.2c0-0.7,0-1.5-0.1-2.2c-0.1-0.7-0.2-1.4-0.3-2.2c-0.1-0.7-0.3-1.4-0.5-2.1
	c-0.2-0.7-0.4-1.4-0.7-2.1c-0.3-0.7-0.6-1.3-0.9-2c-0.3-0.6-0.7-1.3-1.1-1.9c-0.4-0.6-0.8-1.2-1.3-1.7c-0.5-0.6-1-1.1-1.5-1.6
	c-0.5-0.5-1.1-1-1.6-1.5c-0.6-0.5-1.2-0.9-1.8-1.3C457.8,347.8,457.2,347.4,456.5,347.1z"/>
</svg>
