<svg id="Layer_1" data-name="Layer 1" xmlns="http://www.w3.org/2000/svg" viewBox="0 0 19.06 18.12"><path d="M14.61,7.83a12.5,12.5,0,0,1-2,6.44,5.26,5.26,0,0,1-1.45,1.52,2.67,2.67,0,0,1-3.26,0A6.29,6.29,0,0,1,6,13.45,12.42,12.42,0,0,1,4.49,6.53,5.88,5.88,0,0,1,5.1,4.32,4.31,4.31,0,0,1,7.84,2a5.81,5.81,0,0,1,3.38,0,4.48,4.48,0,0,1,3.12,3.31A9,9,0,0,1,14.61,7.83Zm-.86-1.64a4.12,4.12,0,0,1-1.32,2.12c-.6.56-1.26,1.08-1.9,1.62a5.25,5.25,0,0,0,1.85,1.63A5.42,5.42,0,0,0,13.75,6.19Zm-8.52.1a5.69,5.69,0,0,0,1.4,5.34A6.63,6.63,0,0,0,8.51,10L8.3,9.82A12.52,12.52,0,0,1,6.37,8.19a4.94,4.94,0,0,1-1-1.55C5.3,6.53,5.27,6.42,5.23,6.29Z"/></svg>